<?xml version="1.0" standalone="no"?>
<!DOCTYPE svg PUBLIC "-//W3C//DTD SVG 20010904//EN"
 "http://www.w3.org/TR/2001/REC-SVG-20010904/DTD/svg10.dtd">
<svg version="1.0" xmlns="http://www.w3.org/2000/svg"
 width="1008.000000pt" height="1008.000000pt" viewBox="0 0 1008.000000 1008.000000"
 preserveAspectRatio="xMidYMid meet">
<metadata>
Created by potrace 1.14, written by Peter Selinger 2001-2017
</metadata>
<g transform="translate(0.000000,1008.000000) scale(0.100000,-0.100000)"
fill="#000000" stroke="none">
<path d="M4739 10015 c-2 -2 -47 -6 -99 -10 -154 -10 -230 -18 -330 -34 -30
-5 -58 -7 -62 -4 -5 2 -14 1 -20 -4 -7 -4 -18 -8 -25 -9 -6 -1 -29 -5 -50 -8
-53 -8 -84 -14 -195 -37 -53 -11 -104 -22 -115 -24 -10 -2 -18 -4 -18 -5 0 -1
-7 -3 -15 -5 -8 -1 -53 -13 -100 -25 -47 -12 -89 -23 -95 -25 -5 -1 -17 -5
-25 -8 -12 -4 -204 -65 -230 -72 -3 -1 -12 -5 -20 -8 -8 -4 -52 -20 -97 -36
-46 -17 -103 -40 -127 -51 -25 -11 -49 -20 -55 -20 -5 0 -26 -9 -48 -19 -76
-39 -171 -81 -182 -81 -6 0 -11 -5 -11 -11 0 -5 -4 -7 -10 -4 -5 3 -10 1 -10
-4 0 -6 -8 -11 -18 -11 -10 0 -22 -4 -28 -9 -5 -4 -52 -31 -104 -58 -143 -76
-245 -135 -248 -144 -2 -5 -8 -9 -14 -9 -6 0 -45 -23 -88 -51 -43 -29 -81 -51
-84 -50 -3 0 -15 -7 -25 -16 -23 -21 -32 -28 -96 -73 -28 -19 -55 -39 -61 -45
-6 -5 -22 -17 -34 -25 -31 -20 -207 -161 -247 -196 -17 -16 -51 -45 -75 -64
-58 -47 -381 -371 -438 -439 -25 -30 -50 -59 -56 -65 -52 -53 -319 -406 -307
-406 4 0 -2 -9 -13 -20 -30 -30 -45 -50 -39 -50 4 0 -7 -18 -24 -39 -17 -21
-31 -41 -31 -45 0 -3 -20 -36 -43 -73 -58 -90 -161 -274 -163 -291 -2 -8 -9
-21 -17 -30 -16 -19 -31 -53 -29 -64 1 -5 -3 -8 -8 -8 -6 0 -10 -4 -10 -9 0
-5 -20 -52 -45 -105 -25 -53 -45 -99 -45 -101 0 -2 -11 -28 -23 -57 -13 -29
-39 -91 -56 -138 -18 -47 -39 -101 -46 -120 -14 -35 -37 -106 -41 -125 -1 -5
-10 -30 -19 -55 -17 -45 -27 -85 -28 -107 0 -7 -4 -13 -8 -13 -4 0 -6 -9 -4
-20 2 -11 0 -20 -4 -20 -4 0 -8 -6 -9 -12 0 -7 -3 -22 -6 -33 -23 -86 -42
-175 -38 -175 2 0 -1 -7 -8 -15 -7 -8 -10 -15 -7 -15 3 0 1 -17 -5 -37 -5 -21
-11 -47 -13 -58 -10 -61 -15 -92 -19 -111 -5 -23 -12 -69 -22 -131 -3 -21 -7
-49 -9 -63 -3 -14 -7 -54 -10 -90 -4 -36 -8 -72 -10 -80 -19 -71 -27 -679 -12
-865 11 -131 23 -246 31 -295 6 -35 18 -119 22 -155 2 -16 6 -41 10 -55 3 -14
8 -36 10 -50 3 -14 10 -50 16 -80 7 -30 12 -62 13 -70 1 -8 4 -22 7 -30 3 -8
11 -35 16 -60 6 -25 14 -58 18 -75 5 -16 8 -34 9 -40 0 -5 4 -15 8 -22 4 -6 9
-24 11 -40 2 -15 8 -40 14 -54 6 -15 8 -30 5 -33 -4 -3 -2 -6 4 -6 5 0 10 -6
11 -12 1 -19 9 -49 26 -96 8 -23 16 -46 17 -50 4 -18 86 -240 98 -267 6 -11
31 -69 57 -130 25 -60 53 -122 60 -137 8 -15 14 -29 15 -30 0 -2 17 -37 39
-78 22 -41 45 -87 51 -102 6 -16 16 -28 22 -28 6 0 8 -3 4 -6 -3 -3 7 -27 22
-52 15 -26 30 -54 34 -62 4 -8 32 -53 62 -100 30 -47 58 -93 61 -102 4 -10 10
-18 15 -18 5 0 9 -6 9 -13 0 -8 9 -22 20 -32 11 -10 20 -22 20 -27 0 -6 9 -22
21 -36 11 -15 47 -65 81 -111 68 -95 75 -104 105 -137 12 -13 19 -24 15 -24
-4 0 -2 -4 3 -8 6 -4 30 -32 55 -62 78 -95 84 -102 118 -137 18 -18 30 -33 27
-33 -8 0 304 -311 393 -391 39 -36 72 -64 72 -62 0 2 11 -6 24 -19 13 -13 41
-36 62 -53 20 -16 51 -41 68 -55 17 -14 49 -39 71 -55 22 -16 45 -33 50 -37
63 -50 341 -238 352 -238 3 0 17 -8 31 -19 28 -20 63 -40 177 -103 39 -22 74
-43 80 -49 5 -5 16 -9 25 -9 8 0 26 -9 40 -20 14 -11 33 -20 43 -20 9 0 17 -4
17 -10 0 -5 4 -10 10 -10 5 0 47 -17 92 -38 46 -22 99 -46 118 -55 72 -32 288
-116 365 -141 44 -15 88 -31 97 -36 10 -6 29 -10 42 -10 14 0 27 -4 30 -9 3
-5 23 -12 43 -16 21 -5 43 -10 48 -11 54 -16 165 -46 185 -50 14 -3 50 -11 80
-19 48 -11 75 -17 150 -31 8 -2 31 -6 50 -9 19 -4 46 -9 60 -11 22 -4 50 -8
115 -19 11 -2 43 -6 70 -10 28 -3 64 -7 80 -10 32 -5 86 -11 225 -22 180 -15
694 -8 855 11 22 3 65 7 95 11 73 7 117 13 165 21 22 4 51 8 65 10 22 2 49 7
160 28 14 3 36 8 50 11 14 4 37 8 51 9 14 2 30 6 36 9 6 4 25 9 44 11 19 3 68
15 109 26 41 11 86 23 100 26 14 3 45 12 70 21 25 8 50 16 55 18 63 15 105 31
105 38 0 4 4 6 8 3 16 -10 336 116 542 212 30 14 57 25 59 23 2 -1 7 1 10 6 3
4 33 22 66 38 54 26 190 101 299 164 22 13 72 44 110 69 39 25 72 45 74 44 1
-2 9 3 16 10 8 7 24 20 36 28 12 8 33 23 45 32 13 10 28 18 34 18 6 0 11 4 11
10 0 5 14 17 32 26 17 9 43 27 57 40 14 13 29 24 32 24 3 0 19 11 35 25 16 14
34 29 39 33 6 4 26 21 46 37 19 17 50 41 68 55 18 13 48 38 66 55 18 16 66 60
106 96 147 132 381 373 372 383 -3 3 1 6 10 6 8 0 17 4 19 9 3 8 96 116 131
153 9 10 17 20 17 23 0 3 8 13 18 23 26 28 51 59 117 147 33 44 62 82 65 85 3
3 10 12 15 22 14 23 129 192 135 198 3 3 13 19 22 35 10 17 46 77 80 134 35
58 62 108 60 113 -1 4 2 8 8 8 5 0 10 7 10 15 0 8 5 15 11 15 5 0 7 5 4 10 -3
6 -1 10 5 10 6 0 9 4 6 9 -4 5 -3 11 1 13 10 4 175 340 179 364 1 6 13 35 27
65 57 122 162 429 202 589 2 8 4 16 5 18 2 1 4 7 5 12 1 6 3 11 5 13 1 1 3 11
5 22 5 38 14 75 19 84 3 5 8 26 12 47 3 22 12 66 20 99 8 33 17 76 20 95 2 19
11 73 19 120 14 81 18 115 30 220 3 25 8 59 10 75 19 124 27 677 12 855 -12
147 -17 204 -22 240 -3 19 -7 55 -10 79 -6 49 -13 94 -21 134 -3 16 -7 38 -9
50 -2 12 -6 40 -11 62 -4 22 -8 50 -8 63 -1 12 -4 22 -7 22 -4 0 -6 11 -6 25
-1 14 -5 37 -11 52 -6 16 -14 46 -18 68 -4 22 -8 45 -10 50 -2 6 -5 19 -8 30
-3 11 -12 43 -20 72 -7 28 -11 54 -8 57 3 3 0 6 -6 6 -6 0 -9 7 -6 15 4 8 2
15 -3 15 -5 0 -9 8 -10 18 -3 45 -141 432 -180 505 -8 15 -12 27 -9 27 3 0 -3
15 -14 33 -11 17 -20 40 -20 50 0 9 -4 17 -10 17 -5 0 -10 5 -10 11 0 14 -120
262 -130 269 -4 3 -10 15 -14 27 -6 19 -47 92 -99 177 -96 157 -188 298 -193
293 -1 -1 6 -29 17 -62 11 -33 22 -69 24 -80 2 -11 4 -20 5 -20 1 0 3 -9 5
-21 3 -11 11 -47 20 -80 9 -32 25 -104 36 -159 11 -55 22 -107 24 -115 1 -8 6
-35 9 -60 3 -25 8 -56 10 -70 33 -194 46 -529 32 -780 -4 -63 -8 -128 -10
-145 -2 -16 -7 -57 -10 -89 -4 -32 -14 -98 -22 -145 -8 -47 -17 -99 -20 -116
-3 -16 -10 -48 -15 -69 -6 -22 -12 -49 -13 -60 -3 -24 -28 -113 -58 -204 -11
-34 -21 -68 -23 -75 -1 -7 -8 -28 -16 -47 -7 -19 -12 -38 -11 -42 1 -5 -2 -8
-6 -8 -4 0 -8 -8 -9 -17 -1 -10 -12 -40 -24 -68 -13 -27 -24 -52 -24 -55 -10
-41 -149 -317 -212 -418 -49 -79 -166 -251 -188 -276 -14 -16 -25 -32 -25 -35
0 -3 -14 -20 -30 -38 -17 -18 -30 -34 -30 -37 0 -3 -10 -16 -22 -28 -13 -13
-43 -47 -68 -75 -62 -71 -199 -213 -205 -213 -3 0 -24 -19 -48 -42 -24 -24
-61 -56 -82 -73 -20 -16 -45 -37 -54 -46 -34 -32 -190 -148 -286 -212 -55 -37
-105 -71 -112 -77 -7 -5 -15 -10 -18 -10 -3 0 -24 -11 -46 -26 -134 -84 -550
-288 -611 -300 -5 -1 -10 -3 -13 -4 -3 -1 -8 -3 -12 -5 -5 -1 -19 -6 -33 -12
-128 -53 -519 -171 -590 -178 -14 -1 -32 -5 -40 -8 -15 -6 -99 -24 -150 -33
-14 -2 -34 -6 -46 -9 -12 -3 -37 -7 -58 -10 -20 -3 -53 -8 -74 -11 -50 -7
-119 -17 -227 -30 -27 -3 -81 -7 -120 -9 -38 -2 -70 -5 -70 -6 0 -9 -491 -14
-585 -5 -142 12 -200 20 -340 42 -68 10 -237 48 -340 75 -101 27 -358 108
-400 126 -8 3 -17 7 -20 8 -3 1 -18 7 -33 13 -16 7 -30 12 -32 12 -5 0 -202
84 -255 108 -19 9 -38 21 -42 26 -4 6 -8 8 -8 3 0 -4 -11 0 -25 9 -14 9 -25
13 -25 9 0 -5 -8 -2 -17 6 -10 8 -62 36 -115 64 l-97 49 -30 81 c-38 103 -101
285 -99 288 1 1 -6 27 -15 57 -35 116 -46 160 -40 160 3 0 0 7 -7 15 -7 8 -10
22 -6 30 3 8 1 15 -4 15 -5 0 -9 8 -9 18 1 25 -12 84 -21 102 -4 8 -6 25 -5
38 1 12 -1 22 -5 22 -3 0 -6 8 -7 18 -1 9 -4 37 -8 62 -4 25 -8 56 -10 70 -2
14 -4 25 -5 25 -3 0 -9 39 -16 95 -9 73 -11 90 -29 260 -23 208 -22 707 1 925
3 28 7 68 8 90 4 50 17 164 22 189 2 11 6 40 9 65 3 25 7 55 9 66 3 11 5 23 5
28 1 4 5 7 11 7 5 0 49 26 97 57 89 58 348 193 371 193 6 0 12 4 12 8 0 5 6 9
13 9 6 0 32 9 57 20 70 32 331 117 421 137 166 38 209 47 248 52 25 3 55 8 66
10 11 3 38 7 60 10 22 2 54 6 70 9 201 27 617 23 840 -10 121 -18 130 -19 230
-40 119 -25 109 -23 242 -59 92 -25 272 -88 305 -106 10 -6 25 -10 33 -10 8 0
15 -4 15 -10 0 -5 6 -7 13 -4 8 3 20 -2 27 -11 7 -8 19 -15 26 -15 13 0 192
-89 275 -137 20 -12 47 -27 60 -35 13 -7 26 -15 29 -18 14 -14 102 -70 109
-70 5 0 11 -3 13 -8 2 -4 28 -25 58 -47 30 -22 60 -44 66 -50 7 -5 31 -26 55
-45 49 -38 293 -283 324 -326 11 -14 27 -34 35 -44 8 -9 20 -24 25 -32 6 -8
34 -49 63 -91 28 -42 52 -81 52 -87 0 -5 4 -10 9 -10 13 0 137 -257 176 -364
31 -87 67 -212 78 -276 3 -14 8 -41 12 -60 3 -19 9 -48 12 -65 8 -49 12 -465
3 -465 -4 0 -5 -11 -2 -25 2 -14 0 -25 -5 -25 -5 0 -8 -12 -7 -28 0 -15 -3
-45 -9 -67 -5 -22 -10 -44 -11 -50 -1 -5 -8 -36 -15 -68 -7 -33 -19 -75 -28
-94 l-14 -35 33 23 c18 13 40 29 48 36 8 7 33 26 55 43 99 78 149 123 280 255
77 78 147 150 155 160 8 11 39 49 68 85 61 74 62 76 120 152 23 32 42 62 42
68 0 5 5 10 10 10 6 0 10 4 10 9 0 5 18 35 39 67 21 33 49 77 61 99 59 105 74
131 83 150 6 11 14 27 18 35 32 57 93 201 91 213 -1 4 3 7 8 7 6 0 10 8 10 18
0 10 4 22 10 28 5 5 11 18 13 29 2 11 7 27 10 35 18 42 57 159 61 181 2 13 5
25 7 27 1 1 3 7 4 12 1 6 4 12 5 15 1 3 3 8 4 13 1 4 5 16 9 27 3 11 9 31 11
45 3 14 15 66 26 115 11 50 23 110 26 135 3 25 7 52 9 60 38 211 48 610 20
830 -4 25 -8 59 -9 75 -7 67 -17 127 -41 240 -10 44 -19 87 -20 95 -2 8 -4 15
-5 15 -1 0 -3 9 -5 20 -2 11 -9 40 -15 65 -7 25 -13 50 -14 55 -1 6 -4 15 -7
20 -3 6 -11 30 -19 55 -7 25 -19 59 -26 77 -8 17 -14 34 -14 39 0 40 -196 458
-250 534 -10 15 -20 33 -22 41 -2 8 -6 16 -9 19 -3 3 -37 53 -76 111 -38 58
-77 114 -86 125 -8 10 -39 48 -67 84 -109 139 -280 318 -410 430 -41 36 -76
68 -78 73 -2 4 -7 7 -12 7 -8 0 -38 23 -79 60 -9 8 -57 42 -106 75 -50 33 -92
63 -95 66 -31 35 -398 226 -555 289 -95 38 -132 52 -217 79 -53 18 -106 33
-117 34 -12 1 -21 5 -21 9 0 4 -3 7 -7 6 -7 -2 -102 25 -143 40 -8 3 -19 4
-23 3 -4 0 -16 3 -26 8 -10 6 -29 12 -42 15 -23 4 -103 24 -124 30 -10 3 -66
15 -100 21 -11 2 -22 4 -25 5 -3 1 -9 3 -15 4 -5 1 -26 5 -45 9 -19 4 -46 9
-60 11 -14 3 -34 7 -45 9 -11 3 -42 8 -70 11 -27 4 -57 9 -65 11 -22 6 -104
16 -245 30 -38 4 -88 9 -110 11 -47 6 -651 14 -656 9z"/>
</g>
</svg>
