<?xml version="1.0" encoding="UTF-8"?> <svg xmlns="http://www.w3.org/2000/svg" width="80" height="80" viewBox="0 0 80 80" fill="none"><g id="Icon / Battery"><g id="Group"><path id="Vector" d="M69.7537 16.1179H69.4649V12.7511C69.4649 12.2099 69.0261 11.7711 68.485 11.7711H61.2248C60.6837 11.7711 60.2449 12.21 60.2449 12.7511V16.1179H52.743V8.86124C52.743 8.32007 52.3041 7.88129 51.763 7.88129H28.791C28.2496 7.88129 27.8111 8.32011 27.8111 8.86124V16.1179H20.4625V12.7511C20.4625 12.2099 20.0236 11.7711 19.4825 11.7711H12.2224C11.6812 11.7711 11.2424 12.21 11.2424 12.7511V16.1179H10.9536C9.82774 16.119 8.74834 16.5668 7.95215 17.363C7.15617 18.159 6.70836 19.2386 6.70703 20.3644V31.3104C6.70785 32.7379 7.42565 34.0696 8.61802 34.8546V68.0547C8.61938 69.1322 9.04785 70.165 9.80955 70.9267C10.5715 71.6886 11.6043 72.1171 12.6815 72.1182H68.0264C69.1035 72.1166 70.136 71.6881 70.8975 70.9264C71.6591 70.1644 72.0873 69.1319 72.0887 68.0547V34.8546C73.281 34.0695 73.9989 32.7379 73.9997 31.3104V20.3644C73.9983 19.2386 73.5505 18.159 72.7546 17.363C71.9583 16.5667 70.879 16.1189 69.7531 16.1179H69.7537ZM62.2051 13.731H67.5047V16.1179H62.2051V13.731ZM29.7716 9.84133H50.7832V16.1179H29.7716V9.84133ZM13.2032 13.731H18.5028V16.1179H13.2032V13.731ZM8.66778 20.3645C8.66832 19.7583 8.90951 19.1768 9.33825 18.7484C9.76699 18.3196 10.3482 18.0784 10.9544 18.0779H69.7537C70.36 18.0785 70.9412 18.3196 71.3699 18.7484C71.7986 19.1769 72.0398 19.7583 72.0404 20.3645V31.3104C72.0398 31.9167 71.7986 32.4978 71.3699 32.9266C70.9411 33.3553 70.36 33.5965 69.7537 33.597H10.9544C10.3482 33.5965 9.76697 33.3553 9.33825 32.9266C8.90953 32.4978 8.66832 31.9167 8.66778 31.3104V20.3645ZM70.1292 68.0549C70.1287 68.6127 69.9068 69.1473 69.5124 69.5418C69.1179 69.9359 68.5833 70.1578 68.0258 70.1583H12.6816C12.1241 70.1575 11.5894 69.9357 11.1953 69.5415C10.8011 69.147 10.5792 68.6127 10.5787 68.0549V35.5391C10.7028 35.55 10.828 35.5565 10.9543 35.5565H69.7537C69.8805 35.5565 70.0058 35.55 70.1293 35.5391L70.1292 68.0549Z" fill="#1C2C57"></path><path id="Vector_2" d="M17.2251 26.8004H19.9451V29.675C19.9451 30.2162 20.3839 30.655 20.925 30.655C21.4662 30.655 21.905 30.2162 21.905 29.675V26.8004H25.0878C25.6289 26.8004 26.0677 26.3616 26.0677 25.8204C26.0677 25.2793 25.6289 24.8405 25.0878 24.8405H21.905V21.812C21.905 21.2709 21.4662 20.8321 20.925 20.8321C20.3839 20.8321 19.9451 21.2709 19.9451 21.812V24.8405H17.2251C16.6836 24.8405 16.2451 25.2793 16.2451 25.8204C16.2451 26.3616 16.6837 26.8004 17.2251 26.8004Z" fill="#F47822"></path><path id="Vector_3" d="M53.4575 26.8004H61.3204C61.8616 26.8004 62.3004 26.3615 62.3004 25.8204C62.3004 25.2793 61.8615 24.8405 61.3204 24.8405H53.4575C52.9163 24.8405 52.4775 25.2793 52.4775 25.8204C52.4775 26.3615 52.9164 26.8004 53.4575 26.8004Z" fill="#F47822"></path></g></g></svg> 