<?xml version="1.0" encoding="UTF-8"?> <svg xmlns="http://www.w3.org/2000/svg" fill="none" height="80" viewBox="0 0 80 80" width="80"><path d="m27.3021 32.0654c.395 1.7583 1.3784 3.3292 2.7874 4.4526 1.4089 1.1234 3.1594 1.7322 4.9615 1.726h.0396c1.8143-.0002 3.5732-.6234 4.9828-1.7656l3.4143 3.4107c.0058.0057.0125.0094.0185.0148l.0013 5.3594c0 .5177.4198.9375.9375.9375s.9375-.4198.9375-.9375l-.0014-5.3625 3.3253-3.3289c1.3831 1.0755 3.0813 1.6672 4.8336 1.6838h.0427-.0002c1.7906.0013 3.5299-.5987 4.9385-1.7041 1.4086-1.1055 2.4049-2.6523 2.8292-4.3919l2.6867-11.1287c.0763-.3161-.0164-.6492-.2455-.8802-.229-.231-.5612-.3268-.8779-.2531l-11.1333 2.5893h-.0003c-2.6753.6182-4.8445 2.5693-5.7411 5.1646-.8969 2.5953-.3948 5.4695 1.3284 7.6073l-1.987 1.9891-.0042-14.8593h-.0003c2.3495-.3271 4.3758-1.8156 5.3909-3.9594 1.0149-2.144.8818-4.655-.3542-6.6794l-5.1794-8.47596c-.1695-.27735-.4705-.44713-.7958-.44844h-.0042c-.3237 0-.6247.16693-.7959.44193l-5.2416 8.41867c-1.2745 2.0391-1.4201 4.5875-.386 6.7587 1.0339 2.1708 3.1044 3.6638 5.4909 3.9594l.0042 14.852-2.1193-2.117c1.6646-2.1346 2.1315-4.9684 1.2399-7.524-.892-2.5557-3.0204-4.4838-5.6516-5.1195l-11.1286-2.6875h.0002c-.3161-.0763-.6492.0167-.8802.2456s-.3268.5612-.2531.8781zm32.2266-.3511v.0003c-.4755 1.9732-1.9023 3.5802-3.8052 4.2862-1.9028.7057-4.0325.4182-5.6799-.7675l11.388-11.4zm-12.052-1.4706v-.0049.0005c-.0052-1.3781.4605-2.7167 1.3196-3.794.8594-1.0773 2.0606-1.8292 3.4054-2.1305l7.9447-1.8479-11.4453 11.4573-.0003.0003c-.8011-1.0591-1.2313-2.3526-1.2242-3.6805zm.5498-11.1453v.0005c-.7279.7141-1.65 1.1982-2.6511 1.3914l-.0036-13.39333 3.4374 5.62633h-.0002c.6057.9959.8578 2.1669.7156 3.3237-.142 1.157-.6698 2.232-1.4982 3.052zm-7.3194-.0349-.0033-.0037.0002.0006c-.8289-.8224-1.3518-1.9034-1.4825-3.0636-.1307-1.1601.1388-2.3304.7638-3.3166l3.5107-5.63884.0036 13.47064h.0003c-1.0599-.1776-2.0368-.6841-2.7928-1.4479zm-5.6172 17.3053h-.0369l.0002.0005c-1.3781.0053-2.7166-.4601-3.794-1.3195-1.0773-.8591-1.8292-2.0607-2.1304-3.4052l-1.8472-7.9453 11.4574 11.4453c-1.0506.7948-2.3318 1.2245-3.6492 1.2242zm6.105-6.0781v.0005c-.0123 1.2604-.413 2.4865-1.148 3.5107l-11.4-11.388 7.8814 1.9028c1.3364.3261 2.5242 1.093 3.3708 2.1771.8468 1.0841 1.3034 2.4221 1.2958 3.7977z" fill="#f47822"></path><g fill="#1c2c57"><path d="m8.37519 76.3533c.05729.4706.45677.824.93073.824h14.58798c.2969 0 .5763-.1409.7532-.3795.1768-.2388.2302-.5471.1434-.8312l-1.9098-6.2656 5.9474-3.7597c.7914-.4375 1.7195-.5573 2.5963-.3357.0193.0047.0388.0091.0586.0128l12.1413 2.2357h-.0002c3.3065.5916 6.7153.1104 9.7286-1.3735.0396-.0198.0782-.0422.1146-.0672l21-14.4193c.4089-.2808.5284-.8316.2724-1.2563-.7682-1.2799-2.0005-2.2138-3.4401-2.6075-1.4399-.3938-2.9761-.217-4.2885.4937l-.3349.1807c-1.4578-1.75-3.9678-2.4252-5.882-1.4552-.0071.0037-.0141.0073-.0209.011l-.8247.4442-.0003-.0002c-1.013-.8515-2.2632-1.3711-3.5815-1.488-1.3182-.1169-2.6403.1745-3.7873.8347l-4.5427 2.4703h-6.0471c-1.3063-.0018-2.5954-.2971-3.7719-.8643l-.8331-.4029c-2.3768-1.1565-5.027-1.6328-7.658-1.3758-2.6307.257-5.139 1.237-7.2473 2.8315-.0206.0156-.0404.0313-.0596.0487l-2.0112 1.7904h.0002c-.7484.6648-1.6318 1.1598-2.5893 1.4513l-1.1333-3.7175-.0003.0003c-.1203-.3946-.4841-.6641-.8966-.6641h-9.72667c-.26848 0-.52396.1149-.70206.3159-.17787.201-.2612.4685-.22865.7349zm53.27671-27.336c1.0781-.5398 2.4333-.108 3.3125.7115l-7.9247 4.2753-.4343.2289v.0002c-.2488-.694-.6068-1.344-1.0602-1.9252zm-8.1654-.2244c.0073-.0042.0156-.0081.0222-.0125l.0002.0002c.7-.4049 1.4948-.6167 2.3034-.6141.8086.0027 1.6018.2196 2.2992.6287l-3.982 2.1453c-.7484-.5427-1.5982-.9299-2.4986-1.1385zm-31.8313 4.257 1.9818-1.7644c1.832-1.3771 4.0089-2.2219 6.2903-2.4411 2.2816-.2193 4.5794.1953 6.6404 1.1982l.833.4029h-.0002c1.4315.6901 2.9994 1.0491 4.5885 1.0515h8.0773c1.1727.0013 2.3089.4088 3.2152 1.1531.9062.744 1.5268 1.7792 1.7565 2.9292l-5.8135-.263c-2.1302-.0958-4.2646.0026-6.3768.2945-.5128.0709-.8711.5443-.8 1.057.0708.5131.544.8714 1.057.8003 1.9989-.276 4.019-.3693 6.0348-.2786l6.8894.3117c.0143 0 .0284.001.0424.001v-.0002c.5177 0 .9375-.4196.9375-.9375 0-.1406-.0052-.2792-.0136-.4175l.9266-.4877 9.98-5.3842c.7546-.4085 1.6226-.5585 2.4708-.4268.8482.1321 1.6296.5383 2.2247 1.1568l-20.136 13.8247c-2.6373 1.2831-5.6138 1.6963-8.5013 1.1802l-12.1107-2.2299h.0003c-1.3399-.3305-2.7555-.1386-3.9589.5367-.0146.0083-.0292.0169-.0432.026l-5.5357 3.4992-3.9466-12.9446c1.2167-.3714 2.3388-1.0016 3.2893-1.8472zm-6.5607-2.4552 7.5334 24.708-12.4927-.0003-3.01301-24.708z"></path><path d="m15.8351 74.4667c.7646.0002 1.498-.3034 2.0386-.844.5408-.5404.8445-1.2737.8448-2.0383 0-.7643-.3037-1.4976-.844-2.0385-.5407-.5406-1.274-.8443-2.0383-.8445-.7646 0-1.4979.3036-2.0385.8442s-.8446 1.2737-.8446 2.0383c.0008.7643.3047 1.4969.8451 2.0373.5401.5406 1.2727.8445 2.037.8456zm0-3.8906c.2672-.0003.5237.106.7128.2948.189.1888.2953.445.2955.7125 0 .2672-.106.5234-.2948.7125-.189.1891-.4453.2954-.7125.2956-.2674 0-.5237-.106-.7127-.295-.1891-.1888-.2953-.4453-.2953-.7126.0002-.2672.1065-.5231.295-.712.1888-.189.4448-.2953.712-.2958z"></path></g></svg> 