<?xml version="1.0" encoding="UTF-8"?> <svg xmlns="http://www.w3.org/2000/svg" fill="none" height="75" viewBox="0 0 156 75" width="156"><g fill="#ff681c"><path d="m131.554 9.41452c1.189 0 2.154-.96515 2.154-2.15485 0-1.1893-.965-2.15445-2.154-2.15445-1.191 0-2.157.96515-2.157 2.15445 0 1.1897.966 2.15485 2.157 2.15485z"></path><path d="m140.634 18.5212c1.19 0 2.155-.9648 2.155-2.1545s-.965-2.1544-2.155-2.1544-2.155.9647-2.155 2.1544.965 2.1545 2.155 2.1545z"></path><path d="m131.553 19.3427c1.644 0 2.976-1.3322 2.976-2.9759 0-1.6438-1.332-2.9759-2.976-2.9759s-2.976 1.3321-2.976 2.9759c0 1.6437 1.332 2.9759 2.976 2.9759z"></path><path d="m129.582 22.5231c.004-.0024.009-.0045.012-.007-.053.0351-.096.0805-.147.1177.047-.0355.086-.078.135-.1107z"></path><path d="m130.117 22.232c.058-.0255.117-.0464.176-.0694-.06.023-.118.0435-.176.0694z"></path><path d="m130.726 22.0283c.062-.0152.124-.032.187-.0431-.063.0111-.125.0279-.187.0431z"></path><path d="m129.121 22.9032c-.02.0186-.043.0322-.061.0508.018-.0186.042-.0326.061-.0508z"></path><path d="m131.553 28.9745c-.002 0-.005-.0009-.007-.0009.003 0 .004.0009.007.0009z"></path><path d="m130.714 28.8632c.049.0123.098.0247.148.0346-.005-.0004-.01-.0024-.015-.0037-.045-.0091-.089-.0202-.133-.0309z"></path><path d="m129.472 28.2809c-.003-.0023-.005-.0046-.008-.0069.003.0023.005.0046.008.0069z"></path><path d="m149.74 23.2924c-1.189 0-2.154.9647-2.154 2.1552 0 1.1897.965 2.1545 2.154 2.1545 1.19 0 2.155-.9648 2.155-2.1545 0-1.1905-.965-2.1552-2.155-2.1552z"></path><path d="m140.633 32.3728c-1.189 0-2.154.9652-2.154 2.1553 0 1.1897.965 2.1544 2.154 2.1544 1.19 0 2.155-.9647 2.155-2.1544 0-1.1901-.965-2.1553-2.155-2.1553z"></path><path d="m140.633 22.4717c-1.644 0-2.976 1.3321-2.976 2.9759 0 1.6437 1.332 2.9759 2.976 2.9759s2.976-1.3322 2.976-2.9759c0-1.6438-1.332-2.9759-2.976-2.9759z"></path><path d="m128.303 24.0744c.02-.0464.055-.0841.077-.1289.011-.0234.019-.0472.03-.0685-.059.1165-.112.2352-.158.3596 0-.0013.002-.0033.002-.005.019-.0513.028-.1067.049-.1572z"></path><path d="m128.774 23.299c.001-.0009.001-.0013.001-.0013-.108.1388-.203.2853-.29.4405.078-.135.158-.2685.25-.392.012-.0164.027-.0308.039-.0472z"></path><path d="m129.059 22.9537c-.053.0538-.094.1187-.145.1761v-.0004c.049-.0591.092-.1219.145-.1757z"></path><path d="m128.162 24.5342c.001-.0041.001-.0087.003-.0123-.026.0956-.057.1888-.074.2869 0-.0012 0-.0025.001-.0033.016-.0928.045-.1806.07-.2713z"></path><path d="m128.025 25.4475v.0009c0-.0032.001-.0059.001-.0082 0 .0023-.001.0045-.001.0073z"></path><path d="m134.965 24.5962c-.014-.0542-.034-.1059-.05-.1597.011.0341.019.069.029.1027.005.0201.016.0373.021.057z"></path><path d="m135.014 24.7981c-.009-.055-.024-.1071-.036-.1609.003.0156.002.0328.006.048.008.0382.023.0739.03.1129z"></path><path d="m134.694 23.8748c.013.0255.018.0546.03.0797.042.0874.089.1724.124.2631-.06-.1576-.133-.307-.213-.4532.008.0156.014.0328.022.0484.011.0214.026.0403.037.062z"></path><path d="m135.08 25.448c0-.0046-.002-.0077-.002-.0118 0 .0041.002.0082.002.0127z"></path><path d="m134.102 23.0206c-.02-.021-.035-.0466-.055-.0669.016.0166.029.0364.044.0537.004.0046.007.0087.011.0132z"></path><path d="m134.603 23.7053c-.061-.1067-.121-.2126-.193-.3111.049.0702.088.1482.131.2216.019.0308.043.0583.062.0895z"></path><path d="m128.775 23.299c-.012.0165-.027.0305-.04.0474.01-.014.024-.0256.035-.0396.001-.0017.003-.005.005-.0078z"></path><path d="m128.96 23.0879c.054-.0604.102-.1277.16-.1843-.019.018-.042.0312-.061.0505-.054.0533-.096.1165-.144.1753.013-.0156.031-.0263.045-.0415z"></path><path d="m131.552 41.4803c-1.189 0-2.155.9652-2.155 2.1549 0 1.1889.966 2.1532 2.155 2.1532 1.191 0 2.156-.9643 2.156-2.1532 0-1.1897-.965-2.1549-2.156-2.1549z"></path><path d="m122.471 32.3737c-1.189 0-2.154.9647-2.154 2.1544s.965 2.154 2.154 2.154c1.191 0 2.156-.9643 2.156-2.154s-.965-2.1544-2.156-2.1544z"></path><path d="m131.553 31.5521c-1.644 0-2.976 1.3322-2.976 2.9759 0 1.6438 1.332 2.9759 2.976 2.9759s2.976-1.3321 2.976-2.9759c0-1.6437-1.332-2.9759-2.976-2.9759z"></path><path d="m133.524 22.5231c.188.1273.363.2709.523.4306-.163-.1634-.343-.3091-.535-.4376.003.0025.008.0037.012.007z"></path><path d="m132.813 22.1626c.06.023.12.0435.177.0694-.058-.0259-.117-.0464-.177-.0694z"></path><path d="m132.192 21.9849c.064.011.126.0279.189.0431-.063-.0148-.124-.0316-.189-.0431z"></path><path d="m131.554 28.9745c.002 0 .005-.0009.008-.0009-.003 0-.006.0009-.009.0009z"></path><path d="m133.618 28.2942-.002.0018z"></path><path d="m132.242 28.8995c.05-.0095.098-.0231.148-.0351-.041.0099-.082.0198-.123.0281-.009.0016-.017.0057-.025.007z"></path><path d="m131.553 28.9741c-.006 0-.011-.0017-.016-.0017.003 0 .006.0017.009.0017s.005.0004.007 0c.003.0004.006-.0009.008-.0009.004 0 .007-.0008.01-.0008-.006 0-.012.0017-.018.0017z"></path><path d="m132.23 28.9006c.004-.0004.009-.0004.011-.0012.009-.0013.017-.0054.026-.0071-.013.0025-.024.0058-.037.0083z"></path><path d="m130.847 28.894c.005.0013.009.0033.015.0038.002.0008.003.0008.005.0012-.007-.0012-.014-.0037-.02-.005z"></path><path d="m130.86 28.8981c.032.0066.062.0153.093.0206-.029-.0049-.058-.014-.086-.0202-.003-.0004-.005 0-.007-.0004z"></path><path d="m130.348 28.7533c-.01-.0037-.021-.0087-.031-.012.01.0033.021.0087.031.012z"></path><path d="m131.527 28.972c.008 0 .014.0022.021.0022-.004 0-.007-.0017-.01-.0017-.004 0-.007-.0005-.011-.0005z"></path><path d="m132.155 28.9184c.03-.0054.058-.0128.088-.0186-.004.0004-.008.0004-.011.0012-.027.0046-.051.0128-.077.0174z"></path><path d="m131.562 28.9738c.006 0 .011-.0014.018-.0014-.003 0-.006.0005-.009.0005-.004 0-.006.0009-.009.0009z"></path><path d="m132.8 28.7368c-.012.005-.024.0095-.036.0141.012-.0046.024-.0087.036-.0141z"></path><path d="m132.99 22.2324c-.058-.0259-.118-.0468-.177-.0702 0 0-.002 0-.002-.0005.059.0239.121.0448.179.0707z"></path><path d="m130.294 22.1622s-.001 0-.001.0009c-.059.0221-.119.0431-.176.0693h-.001c.059-.0262.118-.0472.178-.0702z"></path><path d="m130.916 21.9844h-.002c-.064.0119-.126.0287-.188.0431-.001.0008-.002.0008-.002.0008.064-.0148.126-.0316.192-.0439z"></path><path d="m131.553 21.9208c.006 0 .011.0012.017.0012-.004 0-.009-.0012-.012-.0012h-.005-.004c-.005 0-.009.0012-.013.0012.006 0 .012-.0012.017-.0012z"></path><path d="m132.383 22.0292s-.002-.0008-.003-.0008c-.061-.0152-.124-.0316-.188-.0431 0 0-.001 0-.002-.0004.066.0119.129.0291.193.0443z"></path><path d="m131.537 21.922c.003 0 .007-.0012.011-.0012-.218.0004-.429.0263-.635.064l.001-.0004c.203-.0369.41-.0616.623-.0624z"></path><path d="m130.723 22.0291s.002-.0008.003-.0008c-.149.0357-.293.0805-.433.1339h.002c.139-.0534.281-.0973.428-.1331z"></path><path d="m130.116 22.2324c-.182.0813-.359.1733-.523.2837.164-.1104.341-.2024.523-.2837z"></path><path d="m132.812 22.1622.002.0004c-.141-.0542-.285-.0986-.433-.1343.001.0004.001.0004.003.0013.146.0348.288.0788.428.1326z"></path><path d="m132.19 21.9844h.002c-.207-.0378-.417-.0636-.634-.0636.004 0 .008.0012.011.0012.213.0008.42.0255.621.0624z"></path><path d="m133.512 22.5157c-.164-.1104-.34-.202-.523-.2833.001 0 .001 0 .002.0004.181.0809.357.1733.521.2829z"></path><path d="m134.032 22.9422c.005.0037.01.007.014.0111.016.0164.028.0365.044.0538-.015-.0173-.027-.0374-.044-.0538-.159-.1589-.334-.3034-.522-.4302.183.1235.352.2648.508.4191z"></path><path d="m130.846 28.894c.007.0013.014.0033.021.005h.003c-.01-.0017-.021-.005-.03-.007.001.0008.004.0012.006.002z"></path><path d="m132.23 28.9007c.013-.0025.025-.0058.037-.0083.002-.0004.004-.0012.006-.0017-.015.0029-.03.0075-.045.0108.001-.0008.002-.0008.002-.0008z"></path><path d="m131.526 28.9716c.004 0 .007.0012.011.0012.005 0 .01.0012.016.0012s.011-.0012.018-.0012c.004 0 .007-.0012.01-.0012-.009 0-.018.0016-.028.0016-.009 0-.018-.0016-.027-.0016z"></path><path d="m130.87 28.8989h-.003c.029.0062.057.0149.087.0203h.002c-.029-.0054-.057-.0141-.086-.0203z"></path><path d="m131.526 28.9716c-.007 0-.013-.0016-.02-.0016.007 0 .014.0016.02.0016.004.0004.008.0013.011.0013-.004 0-.007-.0013-.011-.0013z"></path><path d="m130.314 28.74.003.0012c.01.0042.021.0083.031.012.001 0 .002 0 .003.0008-.013-.0045-.025-.0095-.037-.014z"></path><path d="m131.582 28.9716c-.004 0-.007.0013-.011.0013.003 0 .005-.0009.008-.0009.007 0 .014-.002.021-.002-.007 0-.013.0016-.018.0016z"></path><path d="m132.763 28.7521s.001 0 .003-.0009c.011-.0045.023-.0095.035-.014.001-.0004.002-.0004.003-.0012-.014.0053-.028.0107-.041.0161z"></path><path d="m132.228 28.9009c-.025.0054-.05.0128-.076.0174h.003c.026-.0046.051-.0128.077-.0178-.002.0004-.002.0004-.004.0004z"></path><path d="m132.803 28.7359c-.001.0008-.002.0008-.003.0012.061-.0234.124-.0455.182-.0718 0 0-.001.0004-.002.0012-.057.0259-.118.0472-.177.0694z"></path><path d="m131.599 28.9699c-.007 0-.013.0021-.021.0021.197-.0012.389-.0218.578-.0538h-.003c-.18.0312-.366.0493-.554.0517z"></path><path d="m130.35 28.754s-.001-.0008-.002-.0008c.119.0435.241.0788.365.11 0 0-.001 0-.003-.0008-.122-.0308-.242-.0657-.36-.1084z"></path><path d="m129.581 28.3713c.226.1532.475.2722.735.3699 0 0-.001-.0008-.002-.0016-.258-.0973-.507-.216-.733-.3683z"></path><path d="m132.392 28.8632c-.002 0-.002.0008-.003.0016.128-.0312.253-.069.376-.1137-.001 0-.002 0-.002.0008-.121.0439-.245.0801-.371.1113z"></path><path d="m133 28.6579c.183-.0821.36-.1753.524-.2866-.164.1105-.34.2041-.522.2862-.001 0-.001.0004-.002.0004z"></path><path d="m130.956 28.9191h-.003c.187.0316.378.0517.574.0529-.008 0-.014-.002-.022-.002-.187-.0025-.37-.0206-.549-.0509z"></path><path d="m130.841 28.8921c-.043-.0087-.087-.0194-.13-.0302.001.0009.002.0009.003.0017.044.0107.089.0215.134.0305-.002-.0008-.005-.002-.007-.002z"></path><path d="m132.273 28.8904c-.002.0008-.005.0012-.006.0021.04-.0087.082-.0186.122-.0281.001-.0008.002-.0008.003-.0012-.039.0099-.079.019-.119.0272z"></path><path d="m132.979 28.6661c.002-.0004.002-.0004.004-.0012.005-.0025.011-.0041.017-.0066.001-.0008.001-.0008.001-.0008-.007.0033-.015.0053-.022.0086z"></path><path d="m113.365 27.6025c1.19 0 2.155-.9648 2.155-2.1557 0-1.1889-.965-2.1544-2.155-2.1544-1.189 0-2.154.9655-2.154 2.1544 0 1.1909.965 2.1557 2.154 2.1557z"></path><path d="m122.472 18.5216c1.19 0 2.155-.9647 2.155-2.1552 0-1.1893-.965-2.1545-2.155-2.1545-1.189 0-2.155.9652-2.155 2.1545 0 1.1905.966 2.1552 2.155 2.1552z"></path><path d="m122.473 22.4717c-1.644 0-2.976 1.3317-2.976 2.9759 0 1.6437 1.332 2.9755 2.976 2.9755s2.976-1.3318 2.976-2.9755c0-1.6442-1.332-2.9759-2.976-2.9759z"></path><path d="m135.02 26.0692c-.009.0479-.022.0946-.033.1416.011-.047.024-.0933.033-.1416z"></path><path d="m134.844 26.6927c-.01.0294-.022.0587-.034.0872.012-.0285.023-.0578.034-.0872z"></path><path d="m128.026 25.4536-.001-.0063v.0009z"></path><path d="m128.085 26.0642c.004.0207.006.0421.009.0624-.001-.0116-.001-.0236-.003-.0356-.001-.0094-.004-.0177-.006-.0268z"></path><path d="m128.26 26.6853c.007.0173.012.0359.019.0533-.003-.0079-.005-.0165-.008-.0244z"></path><path d="m128.931 27.7848c.001.0014.003.0036.004.005 0 0 .001.0014.002.0014-.003-.0023-.004-.0046-.006-.0064z"></path><path d="m128.934 27.7893.001.0018z"></path><path d="m128.629 27.4189c.09.1331.198.2513.305.3703-.001-.0012-.002-.0028-.003-.0041-.105-.1182-.213-.2348-.302-.3662z"></path><path d="m128.255 24.2317c0 .002-.001.0033-.001.0053-.035.0928-.063.1889-.09.2849-.001.0041-.002.0087-.003.0119.028-.1026.058-.2032.094-.3021z"></path><path d="m128.217 26.5392c.016.048.025.0989.043.1461.003.0099.008.0189.011.0288-.022-.0567-.035-.1166-.054-.1749z"></path><path d="m128.085 26.0643c.002.009.005.0172.007.0267-.039-.2086-.065-.4233-.065-.6437 0-.2192.026-.4331.065-.6413 0 .0009-.001.0021-.001.0033-.038.2049-.063.4146-.064.6306 0 .0029-.001.0045-.001.0074 0 .002.001.0037.001.0057 0 .2094.022.4134.058.6113z"></path><path d="m128.735 23.3466c-.093.1235-.173.2569-.25.392-.025.0456-.051.0911-.075.1384-.011.0217-.018.0455-.029.0681.102-.2098.216-.4134.354-.5985z"></path><path d="m128.559 27.2906c-.005-.007-.008-.0153-.012-.0223.004.007.008.0153.012.0223z"></path><path d="m128.41 23.8778c.025-.0475.05-.0933.076-.1392-.026.0459-.051.0917-.076.1392z"></path><path d="m128.164 24.5218c.026-.096.054-.1921.089-.2849-.035.0924-.061.1889-.089.2849z"></path><path d="m128.026 25.4398c.001-.216.027-.4257.064-.6306-.039.2053-.063.4146-.064.6306z"></path><path d="m128.085 26.0643c-.036-.1979-.058-.4019-.059-.6113.001.2094.024.4126.059.6113z"></path><path d="m128.132 26.2675c.034.1428.077.282.128.4183-.018-.0476-.027-.0985-.044-.1462-.029-.0907-.062-.179-.084-.2721z"></path><path d="m128.547 27.2679c-.077-.1256-.151-.2529-.211-.3884.084.1884.179.3699.292.5386-.026-.0398-.043-.0866-.07-.1276-.003-.0074-.007-.0152-.011-.0226z"></path><path d="m134.715 26.9621c.03-.0616.068-.1191.094-.1823.012-.0287.024-.0583.034-.0866.043-.1105.071-.2279.103-.3432-.061.2114-.137.4167-.231.6121z"></path><path d="m134.657 23.8125c-.008-.0152-.014-.0324-.022-.0476-.011-.0202-.022-.0403-.033-.0596-.018-.0312-.042-.0587-.061-.0895.039.0661.081.129.116.1967z"></path><path d="m134.543 27.2991c-.003.005-.005.01-.008.015.003-.005.006-.01.008-.015z"></path><path d="m135.079 25.4476c0 .271-.038.5316-.099.7833.003-.0066.005-.014.007-.0209.01-.0473.024-.0928.032-.1409.037-.2003.06-.4056.06-.6166 0-.0016.001-.0033 0-.0049.001-.0041-.001-.0078-.001-.0115 0-.2184-.025-.4306-.064-.6379-.008-.039-.022-.0748-.03-.1125.057.2451.095.4983.095.7619z"></path><path d="m134.944 24.5396c-.01-.0345-.018-.069-.028-.1026-.023-.0735-.042-.1478-.068-.2193-.036-.0907-.081-.1757-.123-.2631.088.1868.162.383.219.585z"></path><path d="m134.848 24.2177c.026.0714.046.1457.068.2192-.023-.0735-.041-.1482-.068-.2192z"></path><path d="m135.015 24.7982c.039.2073.063.4196.064.6384-.001-.2192-.024-.4319-.064-.6384z"></path><path d="m134.603 23.7053c.011.0198.021.0401.033.0599-.012-.0198-.022-.0401-.033-.0599z"></path><path d="m134.979 26.2442c.003-.0116.006-.0231.009-.0339-.002.007-.005.0132-.006.0207-.002.0045-.001.0086-.003.0132z"></path><path d="m135.079 25.4525c0 .211-.023.4163-.059.6166.035-.2003.059-.4052.059-.6166z"></path><path d="m134.694 27.02c-.048.0948-.1.1872-.152.28-.002.0037-.004.0086-.007.0127-.02.0349-.035.0735-.058.1063.134-.1983.24-.415.332-.6396-.026.0637-.064.1211-.094.1831-.009.0177-.013.0394-.021.0575z"></path><path d="m134.844 26.6927c.05-.1326.092-.2676.126-.4068-.006.0222-.018.0419-.024.0644-.032.1154-.06.232-.102.3424z"></path><path d="m128.769 23.3071c-.01.014-.024.0255-.034.0394-.139.1856-.252.3888-.355.599-.001.0029-.002.0066-.004.0098.108-.2307.239-.4482.393-.6482z"></path><path d="m129.582 22.5231c-.166.112-.317.2426-.462.3801-.058.0571-.106.124-.16.1843.189-.2073.389-.4068.622-.5644z"></path><path d="m129.12 22.9032c.102-.0973.214-.1848.327-.2701-.113.0862-.226.1707-.327.2701z"></path><path d="m129.581 22.5231c-.047.0328-.088.0747-.133.11-.114.0854-.225.1724-.328.2701.144-.1375.295-.2681.461-.3801z"></path><path d="m128.381 23.9451c-.022.0454-.057.0834-.077.13.019-.0429.053-.0768.073-.1193.001-.0033.003-.0074.004-.0107z"></path><path d="m128.547 27.2679c.005.0074.008.0153.012.0227l.001.0004c-.005-.0083-.009-.0178-.015-.0268.001.0012.002.0024.002.0037z"></path><path d="m128.93 27.7848c.003.0019.004.0041.007.0064-.003-.0023-.005-.0045-.007-.0073z"></path><path d="m128.931 27.7843c-.137-.1539-.263-.3169-.371-.493v-.0004c.025.041.042.0878.069.1277.089.1317.197.2475.302.3662z"></path><path d="m128.545 27.2647c-.075-.1252-.149-.2505-.209-.3847.06.1355.134.2623.211.3888-.001-.0013-.002-.0033-.002-.0041z"></path><path d="m128.936 27.7909c.043.0487.078.1049.124.1507-.046-.0458-.081-.102-.124-.1507z"></path><path d="m128.304 26.8204c.009.0211.023.0393.033.0599-.01-.0206-.024-.0388-.033-.0599z"></path><path d="m134.98 26.2322c0-.0004.001-.0013.001-.0013.061-.2516.098-.5127.098-.7837 0-.2631-.038-.5164-.095-.7619 0-.0008-.001-.0008-.001-.0012.058.2455.096.4992.096.7631 0 .2718-.037.5333-.099.785z"></path><path d="m134.945 24.5416c0-.0008-.002-.0012-.002-.0021-.056-.2019-.13-.3978-.218-.5845.089.1872.162.383.22.5866z"></path><path d="m134.715 26.9621c.094-.1954.17-.4007.231-.6121 0-.0008 0-.0012 0-.0025-.06.2127-.137.4188-.231.6146z"></path><path d="m134.981 26.2323c-.002.005-.001.0105-.002.0155v-.0018c.002-.005.001-.01.002-.015z"></path><path d="m134.947 26.3478c-.001.0009-.001.0025-.001.0025.006-.0223.018-.0425.025-.0644v-.0012c-.007.0214-.018.0413-.024.0631z"></path><path d="m134.977 24.6362v.0013c-.003-.0141-.008-.0277-.012-.0422v.0033c.004.0128.009.0248.012.0376z"></path><path d="m134.97 26.2845v.0012c.003-.0132.006-.0272.009-.0417v.0021c-.003.0128-.006.0256-.009.0384z"></path><path d="m134.945 24.5416c.005.0198.016.038.021.0586 0-.0016 0-.0033 0-.0033-.006-.0202-.016-.0379-.023-.0573 0 .0008.002.0012.002.002z"></path><path d="m134.983 24.6839c0 .0008.001.0008.001.0016-.004-.0157-.003-.033-.006-.0483v-.0012c.003.0157.002.033.005.0479z"></path><path d="m132.386 22.03c-.001 0-.002-.0004-.003-.0004-.064-.016-.127-.0324-.193-.0447h-.002c.067.0119.132.0291.198.0451z"></path><path d="m131.553 21.9212c.011 0 .021.0025.032.0025-.006 0-.01-.0021-.015-.0021-.006 0-.011-.0012-.017-.0012-.005 0-.01.0012-.017.0012-.004 0-.008.0021-.014.0021.011 0 .021-.0025.031-.0025z"></path><path d="m133.526 22.5238c-.005-.0027-.01-.005-.013-.0082h-.001c.004.0032.009.0055.014.0082z"></path><path d="m130.917 21.9844h-.001c-.067.0119-.129.0291-.193.0443 0 0-.002.0008-.003.0008.065-.0156.13-.0328.197-.0451z"></path><path d="m132.991 22.2333s-.001-.0009-.001-.0009c-.059-.0258-.119-.0468-.179-.0706-.001 0-.002 0-.002-.0008.061.0238.123.0456.182.0723z"></path><path d="m130.297 22.1614c-.001 0-.002 0-.003.0008-.06.023-.12.0439-.179.0702 0 0 0 .0008-.001.0008.06-.0271.121-.0484.183-.0718z"></path><path d="m131.523 21.9236c.005 0 .009-.0016.014-.0016-.213.0008-.419.0259-.622.0624h.002c.198-.0353.398-.0591.606-.0608z"></path><path d="m130.72 22.03c.001-.0004.002-.0004.003-.0012-.147.0357-.289.0797-.429.1334.001 0 .002 0 .002-.0008.138-.0525.278-.0965.424-.1314z"></path><path d="m130.115 22.2328.001-.0004c-.182.0813-.359.1733-.523.2837.164-.1096.34-.2016.522-.2833z"></path><path d="m132.189 21.9844h.001c-.202-.0374-.407-.0612-.621-.0624.006 0 .01.0012.015.0012.207.0017.408.0255.605.0612z"></path><path d="m133.512 22.5156c-.164-.11-.34-.2015-.522-.2828l.001.0004c.182.0809.357.1724.521.2824z"></path><path d="m132.809 22.1614c0 .0004.002.0004.002.0004-.139-.053-.282-.0969-.428-.1326.001 0 .003.0008.003.0008.145.0357.285.0788.423.1314z"></path><path d="m133.817 28.1298.002-.0005.001-.0009z"></path><path d="m133.524 28.3719c.033-.0227.061-.0508.092-.076-.032.0235-.059.0533-.092.076z"></path><path d="m133.619 28.2938c.067-.0546.134-.1092.2-.1646 0 0-.001-.0001-.001.0008-.065.055-.129.1133-.199.1638z"></path><path d="m133.616 28.2966.003-.0023.001-.0005z"></path><path d="m133.819 28.1292c.075-.0636.158-.1187.229-.188-.07.0693-.153.1235-.228.1872z"></path><path d="m129.301 28.1399v.0009l.001.0009z"></path><path d="m129.303 28.1411c.053.0444.108.0883.162.1334-.057-.0418-.108-.089-.162-.1334z"></path><path d="m129.471 28.2803c.036.0305.071.0644.111.0916-.04-.0272-.072-.0631-.111-.0916z"></path><path d="m129.464 28.2745c.003.0023.006.0046.008.0064-.003-.0018-.005-.0045-.008-.0064z"></path><path d="m129.06 27.9408c.074.0743.162.1326.242.1995h-.001c-.08-.0677-.167-.1252-.241-.1995z"></path><path d="m128.217 26.5392c.019.0583.032.1182.054.1749v.0008c-.022-.0583-.035-.1199-.055-.1794z"></path><path d="m128.255 24.2317c-.036.0985-.066.1999-.093.3025-.001.0009-.001.0013-.001.0021.028-.1035.058-.2053.094-.3046z"></path><path d="m128.026 25.4476c0-.2201.027-.434.066-.6429-.001 0-.001.0008-.001.0016-.038.2082-.065.4212-.065.6413 0 .2204.027.4343.065.6429.001.0008.001.0016.001.0016-.039-.2098-.066-.4241-.066-.6445z"></path><path d="m128.216 26.5355c-.03-.0895-.062-.1778-.084-.2698v.0013c.022.0936.055.1823.085.2722z"></path><path d="m128.095 26.1267c0-.0008 0-.0008 0-.0008.009.0487.025.0945.037.1424v-.0016c-.011-.0471-.027-.0921-.037-.14z"></path><path d="m128.278 26.7383c.011.0264.014.0561.026.0822-.012-.0256-.015-.0558-.026-.0822z"></path><path d="m128.303 24.0745c-.021.0505-.03.1059-.049.1572h.001c.018-.0513.027-.1076.048-.1572z"></path><path d="m128.161 24.5358.001-.0016c-.025.0907-.053.1786-.07.2713 0 0 0-.0004 0-.0012.017-.0915.045-.179.069-.2685z"></path><path d="m128.092 26.0922c0-.0008 0-.0013 0-.0013.002.0112.001.024.004.0351v.0009c-.003-.0116-.003-.0232-.004-.0347z"></path><path d="m133.524 22.5231c.183.1231.351.2648.508.4191-.156-.1543-.325-.2951-.508-.4191z"></path><path d="m134.475 27.3914c.018-.0275.042-.0505.06-.0788.003-.0041.004-.0086.007-.0131.035-.0554.059-.1174.091-.1745-.05.0907-.103.1798-.158.2664z"></path><path d="m134.542 27.2991c.052-.0923.104-.1847.152-.2799-.019.0369-.043.0693-.062.1059-.032.057-.056.119-.09.174z"></path><path d="m134.474 27.3914c-.022.0349-.039.0735-.063.108.02-.0283.046-.0517.066-.0809.023-.0328.038-.071.058-.1059-.018.0283-.042.0513-.061.0788z"></path><path d="m128.376 23.9558c-.042.0907-.085.1814-.121.2758-.036.099-.066.2016-.094.3042-.024.0895-.052.177-.069.2685-.039.209-.065.4229-.065.6429 0 .2213.026.4352.065.6453.008.0349.017.0694.025.1043.025.1162.062.2279.099.3387.02.0595.033.1211.056.1794.005.014.011.0279.016.0419.073.1765.159.3461.258.5078.005.0086.009.0181.015.0267.109.1745.233.3395.37.4926.002.0025.004.0045.006.0066.131.1478.282.2767.437.4007.087.0702.181.133.275.195.091.0599.184.1157.28.1674.097.0522.196.1006.298.1441.12.0497.245.0895.371.1257.08.0242.16.0509.243.0685.01.0021.019.0054.03.0074.212.0427.431.0702.656.0723.009 0 .018.0016.026.0016.01 0 .02-.0016.029-.0016.222-.0021.436-.0292.646-.0702.015-.0033.03-.0078.046-.0107.082-.0181.161-.0452.241-.0686.121-.0349.241-.0718.356-.1198.108-.0448.212-.0977.314-.1528.088-.0463.173-.0964.257-.151.102-.0661.201-.1355.296-.2114.144-.1162.286-.2328.41-.3695.002-.0013.003-.0033.005-.0045.119-.131.223-.2743.322-.4221.056-.0866.108-.1753.158-.2656.029-.0533.056-.1083.083-.1634.095-.1954.172-.4015.231-.6145.011-.039.025-.076.034-.1154.062-.2516.099-.5131.099-.7849 0-.2644-.038-.5181-.096-.7636-.011-.0484-.026-.0948-.039-.142-.057-.2032-.131-.3991-.221-.5871-.019-.0406-.036-.0825-.057-.1219-.109-.2094-.233-.4068-.38-.5891-.079-.0977-.151-.2012-.24-.2898-.005-.0041-.009-.0074-.014-.0119-.156-.1544-.325-.2956-.508-.4188-.004-.0024-.008-.0045-.012-.0074-.164-.1092-.34-.2011-.521-.2828-.06-.0263-.121-.0485-.182-.0715-.138-.0521-.278-.096-.423-.1313-.066-.0156-.13-.0337-.197-.046-.197-.0357-.398-.0583-.605-.0603-.01 0-.021-.0029-.031-.0029s-.02.0029-.031.0029c-.206.002-.408.0246-.604.0603-.068.0131-.132.0304-.198.046-.145.0353-.286.0792-.423.1313-.06.023-.123.0444-.181.0715-.182.0817-.358.1736-.522.2828-.004.0029-.008.005-.011.0074-.234.1577-.433.3572-.623.5649-.064.0723-.131.142-.191.2192-.154.2004-.285.4179-.394.6487z"></path><path d="m131.523 21.9237c-.208.0016-.409.0255-.606.0608.197-.0353.399-.0592.606-.0608z"></path><path d="m130.72 22.03c-.145.0353-.286.0793-.423.1314.137-.0525.278-.0965.423-.1314z"></path><path d="m130.227 28.6978c.03.0127.057.0303.087.0426.013.0037.025.0095.036.0144.079.0292.165.0448.248.0694-.128-.037-.252-.0768-.371-.1264z"></path><path d="m128.936 27.7909c.112.1264.235.241.365.3494.001.0008.002.0012.002.0012.022.0185.048.032.071.0497-.155-.1244-.306-.2533-.438-.4003z"></path><path d="m130.955 28.919c.179.0312.363.0484.55.0509.007 0 .014.0012.021.0012-.225-.0016-.444-.0291-.657-.0718.029.0057.057.0144.086.0197z"></path><path d="m133.737 28.1871c.026-.0206.055-.0366.08-.0575 0 0 .001-.0008.002-.0012.115-.0978.226-.1983.328-.3096v-.0008c-.124.1363-.266.2537-.41.3691z"></path><path d="m133.442 28.3989c-.084.0542-.17.1039-.257.1511.087-.0472.173-.0965.257-.1511z"></path><path d="m131.599 28.97c.189-.0025.374-.0197.555-.0518.025-.0045.05-.0119.075-.0172-.21.0419-.425.0686-.647.0702.006 0 .012-.0012.017-.0012z"></path><path d="m132.515 28.8217c.082-.0242.168-.0402.247-.0702.013-.0049.027-.0107.041-.0156.023-.0095.045-.0238.068-.0333-.115.0477-.235.0846-.356.1191z"></path><path d="m132.153 28.9182c-.18.032-.365.0493-.554.0517.189-.0024.374-.0205.554-.0517z"></path><path d="m130.226 28.6977c-.102-.0427-.199-.092-.297-.1441-.097-.0517-.19-.1071-.281-.1671-.057-.0386-.123-.0648-.177-.1067.038.0291.07.0649.11.0915.226.1528.474.2714.733.3691-.03-.0123-.058-.03-.088-.0427z"></path><path d="m131.506 28.97c-.187-.0025-.371-.0197-.55-.0509.18.0303.363.0484.55.0509z"></path><path d="m133.441 28.3989c-.083.0542-.169.1039-.257.1511-.062.0328-.119.078-.183.1079.183-.0829.359-.1757.524-.2865.032-.0222.059-.0521.091-.0751-.055.0394-.118.0656-.175.1026z"></path><path d="m133.619 28.2938c.07-.0505.134-.1088.199-.1638-.025.0205-.055.0357-.08.0562-.042.0345-.076.0768-.119.1076z"></path><path d="m132.803 28.7359c.059-.0222.12-.0435.177-.0694-.034.0152-.073.0218-.11.0365-.022.0087-.043.0234-.067.0329z"></path><path d="m132.392 28.8632c.126-.0312.25-.0673.371-.1112-.08.0299-.165.0459-.248.0697-.042.0124-.081.0308-.123.0415z"></path><path d="m130.351 28.754c.117.0427.238.0776.36.1084-.039-.0103-.075-.0275-.114-.039-.082-.0238-.167-.039-.246-.0694z"></path><path d="m129.303 28.1411c.054.0444.105.0916.161.1334-.033-.0246-.059-.0574-.091-.0837-.023-.0177-.048-.0312-.07-.0497z"></path><path d="m129.463 28.2745c.002.002.004.0041.007.0057.056.0415.12.0686.178.1063-.094-.0624-.187-.1248-.275-.195.032.0251.057.0575.09.083z"></path><path d="m130.226 28.6978c-.102-.0431-.2-.092-.297-.1441.097.0521.195.1014.297.1441z"></path><path d="m130.71 28.8624c.043.0098.086.0205.13.0299-.084-.018-.163-.0451-.243-.0689.039.0119.074.0291.113.039z"></path><path d="m132.98 28.6662c.007-.0033.015-.0054.022-.0086.064-.0296.12-.0743.183-.1072-.102.0546-.206.1072-.314.1523.036-.0148.075-.0205.109-.0365z"></path><path d="m133.441 28.3989c.057-.0369.12-.0632.175-.1026.001-.0008.002-.0021.003-.0029.043-.0312.078-.073.119-.1071-.095.0759-.194.1465-.297.2126z"></path><path d="m132.272 28.8903c.041-.0082.08-.0176.119-.0271.043-.0106.082-.0295.124-.0414-.081.0238-.16.0513-.243.0685z"></path><path d="m134.632 27.1251c.02-.0361.043-.0686.062-.1051.009-.0185.013-.0398.022-.0575-.027.055-.054.1092-.084.1626z"></path><path d="m134.411 27.4991c.024-.0337.041-.0727.064-.108-.099.1478-.204.2907-.323.4224.092-.1005.18-.204.259-.3144z"></path><path d="m134.97 26.2846c.003-.0128.006-.0256.009-.0384.001-.0045 0-.0095.001-.014-.009.0396-.024.0772-.034.116.006-.0219.018-.0409.024-.0636z"></path><path d="m128.931 27.7843c-.136-.1531-.261-.3182-.37-.493.108.1761.233.3391.37.493z"></path><path d="m128.131 26.2657c.022.0924.055.1803.084.2698-.037-.1109-.073-.2225-.1-.3387.006.023.012.046.016.0689z"></path><path d="m128.337 26.8795c.059.1338.133.2603.209.3851-.1-.1614-.185-.3309-.258-.5083.017.0411.03.083.049.1232z"></path><path d="m128.936 27.7909c.042.0484.077.1043.123.1498.074.0743.162.1322.242.2-.13-.1092-.252-.2234-.365-.3498z"></path><path d="m128.095 26.1266c.009.0479.025.0929.036.14-.005-.0236-.011-.0455-.016-.069-.005-.0244-.015-.0467-.02-.071z"></path><path d="m128.287 26.7569c-.002-.0066-.006-.0115-.009-.0181.011.0264.014.0557.026.0813.009.0211.023.0392.033.0603-.019-.0405-.033-.0826-.05-.1235z"></path><path d="m128.092 24.8044c.017-.092.044-.1794.068-.2685-.023.0891-.051.1765-.068.2685z"></path><path d="m128.376 23.9558c-.02.0423-.053.076-.072.1191-.021.0496-.03.1055-.049.1568.036-.0944.078-.1852.121-.2759z"></path><path d="m128.278 26.7389c.003.0066.007.012.009.0177-.006-.014-.01-.028-.016-.0425.003.0079.004.0169.007.0248z"></path><path d="m128.092 26.0922c.001.0115.001.0231.003.0346.005.0244.015.0467.021.0711-.008-.036-.018-.0698-.024-.1057z"></path><path d="m134.966 24.5991c.004.0128.008.0244.011.0372-.003-.0128-.007-.024-.011-.0372z"></path><path d="m134.724 23.9553c-.012-.0256-.017-.0545-.03-.0801-.008-.0153-.019-.0273-.027-.0426.021.0401.038.0822.057.1227z"></path><path d="m134.978 24.6366c-.004-.0128-.009-.0248-.012-.0376-.005-.0198-.016-.0376-.022-.0574.014.0475.029.0942.04.1429-.004-.0153-.003-.0326-.006-.0479z"></path><path d="m128.775 23.2977c.045-.0575.091-.1133.14-.1683-.049.0558-.094.11-.14.1683z"></path><path d="m128.915 23.129c-.049.055-.094.1109-.14.1688 0 0 0 .0008-.001.0016.045-.0595.094-.1137.141-.1704z"></path><path d="m128.96 23.0879c-.014.0152-.032.0259-.045.0415-.047.0566-.096.1108-.14.1703-.002.0017-.004.0045-.005.0074.059-.0772.126-.1465.19-.2192z"></path><path d="m133.819 28.1283c.076-.064.158-.1182.228-.1876.037-.0378.065-.0833.101-.1223-.102.1116-.213.2122-.329.3099z"></path><path d="m134.102 23.0201c.111.117.213.2427.308.374-.092-.1338-.197-.2565-.308-.374z"></path><path d="m134.286 23.2439c.094.117.175.2447.256.3724-.045-.0739-.083-.1519-.132-.223-.095-.1309-.196-.2561-.309-.3727-.003-.0045-.006-.0095-.01-.0132.068.0756.13.1569.195.2365z"></path><path d="m134.694 23.8752c-.01-.0219-.025-.0409-.037-.0623.004.0057.007.0132.01.0198.008.0153.02.0272.027.0425z"></path><path d="m134.091 23.0066c-.016-.0164-.028-.0369-.044-.0534.089.0891.16.1926.239.2899-.065-.0784-.127-.1597-.195-.2365z"></path><path d="m134.657 23.8125c-.035-.0677-.077-.1305-.116-.1966-.08-.1281-.16-.2558-.255-.3724.147.1823.271.3798.381.5887-.004-.0061-.007-.0131-.01-.0197z"></path><path d="m134.148 27.818c-.036.039-.063.0853-.101.1223.135-.1351.255-.2841.365-.4409-.084.1092-.17.2159-.262.3173-.002.0004-.002.0013-.002.0013z"></path><path d="m134.148 27.8172.004-.0041-.005.0055z"></path><path d="m134.147 27.8181.002-.0013z"></path><path d="m134.152 27.8126c-.002.0017-.002.0029-.004.0041.094-.1014.18-.2077.263-.3177v-.0008c-.079.1112-.168.2151-.259.3144z"></path><path d="m13.2873 45.4793c-1.2669-.2065-2.6902-.3876-3.67257-.6466-.85389-.2073-1.16466-.6215-1.16466-1.3703 0-.6979.25986-1.1384 1.11294-1.3453.80139-.1548 1.86169-.2065 2.79279-.2065 2.0436 0 4.6045.1798 6.6735.4134v-3.6726c-2.3026-.1556-4.448-.2841-6.5959-.2841-1.8609 0-3.98333.1285-5.53512.8798-2.04319.9824-2.79281 2.6635-2.79281 4.7333 0 3.3356 1.99187 4.5774 6.54333 5.327 1.3449.2332 2.845.4401 3.8545.6983.8789.2595 1.1893.6733 1.1893 1.4742 0 .7505-.2069 1.2427-1.1384 1.4488-.7751.1556-2.1208.2582-3.6726.2582-1.88758 0-4.60363-.2065-6.72523-.4397v3.7765c2.58755.1555 4.91565.2844 7.32093.2844 1.9906 0 4.267-.2064 5.8451-.9827 2.0436-1.0091 2.819-2.7161 2.819-4.8631 0-3.5934-2.3026-4.7851-6.8541-5.483z"></path><path d="m29.1666 38.7294h-4.5777v17.7166h4.5777z"></path><path d="m39.5391 38.729h-4.5782v17.7175h15.8562v-3.6997h-11.278z"></path><path d="m59.0666 42.4278h10.8117v-3.6997h-15.389v17.718h4.5773v-5.949h9.9582v-3.595h-9.9582z"></path><path d="m78.2835 49.2299 3.2596-6.6469h.1035l3.2591 6.6469zm6.1826-10.5009h-5.4576l-9.1042 17.7175h4.9399l1.8625-3.8536h9.8022l1.9138 3.8536h5.1472z"></path><path d="m106.243 53.1873h-4.862v-4.0092h4.811c2.87 0 4.371.2336 4.371 1.9923 0 1.6803-1.138 2.0169-4.32 2.0169zm-4.862-11.225h3.906c2.871 0 4.371.2319 4.371 2.0181 0 1.7049-1.19 2.0949-4.346 2.0949h-3.931zm13.812 9.6482c0-2.4837-1.448-3.6488-3.724-4.1907v-.1039c1.991-.8793 2.766-2.0686 2.766-3.9312 0-1.5784-.569-2.7415-1.862-3.5169-1.861-1.0871-4.009-1.1384-7.603-1.1384h-7.9663v17.7166h7.9143c4.32 0 6.517-.0509 8.457-1.1888 1.345-.7505 2.018-1.9147 2.018-3.6467z"></path><path d="m58.7558 65.3643c-.6983-.1133-1.4812-.2138-2.0226-.3563-.4697-.1137-.6409-.342-.6409-.7545 0-.3851.1421-.6261.6121-.7415.4409-.0845 1.0255-.1128 1.5387-.1128 1.1248 0 2.5346.1001 3.6742.2282v-2.0231c-1.2677-.0849-2.45-.1568-3.6328-.1568-1.0246 0-2.1922.0718-3.0473.4844-1.1248.5415-1.537 1.4673-1.537 2.6061 0 1.8379 1.0957 2.5222 3.6015 2.9344.7419.1273 1.5674.2426 2.1225.3842.4852.1433.6556.3703.6556.8125 0 .4121-.1137.6823-.6269.7968-.4265.0846-1.1684.1425-2.0214.1425-1.0407 0-2.5359-.1133-3.7042-.2422v2.0793c1.4253.0849 2.707.1568 4.0314.1568 1.0961 0 2.3494-.1141 3.2189-.5415 1.1244-.5559 1.551-1.4955 1.551-2.677 0-1.98-1.2669-2.6348-3.7728-3.0195z"></path><path d="m76.1178 69.6367c-2.663 0-3.8462-.9541-3.8462-3.1911 0-2.2923 1.2115-3.0329 3.8598-3.0329 2.6631 0 3.8462.9401 3.8462 3.1766 0 2.2932-1.2258 3.0474-3.8598 3.0474zm4.6427-7.2068c-1.1819-.769-2.6927-.9832-4.6427-.9832-1.9229 0-3.4463.1999-4.6291.9832-1.3391.8826-1.7944 2.365-1.7944 4.088 0 1.7361.4553 3.1898 1.7944 4.0732 1.1828.7964 2.6915 1.0116 4.6427 1.0116 1.9237 0 3.4468-.2147 4.6287-.9976 1.3247-.8978 1.7944-2.3511 1.7944-4.0872.0004-1.723-.4697-3.1898-1.794-4.088z"></path><path d="m90.46 61.647v9.7561h8.7302v-2.0362h-6.21v-7.7199z"></path><path d="m111.767 63.769h.056l1.795 3.6611h-3.645zm-1.397-2.122-5.013 9.7561h2.721l1.025-2.122h5.398l1.053 2.122h2.835l-5.013-9.7561z"></path><path d="m130.51 66.2749h-2.264v-2.7629h2.236c1.665 0 2.691.0858 2.691 1.3531.001 1.1684-.768 1.4098-2.663 1.4098zm4.102.9557c.769-.5271 1.125-1.2829 1.125-2.4357 0-1.0833-.328-1.8375-1.04-2.3646-.94-.6987-2.321-.7837-4.229-.7837h-4.743v9.7566h2.521v-3.3462h1.609c.228 0 .47 0 .697-.0144l2.607 3.361h3.048l-2.906-3.6471c.513-.0994.954-.2702 1.311-.5259z"></path><path d="m140.731 61.6536c.395-.0028.774.0932 1.138.2878.365.1946.652.4758.863.8432.21.3675.316.7521.319 1.1548.003.4011-.095.7841-.296 1.1495s-.482.6511-.845.8572c-.362.2061-.744.3108-1.144.314-.402.0029-.785-.0956-1.15-.2968-.365-.2003-.651-.4819-.858-.8444-.206-.3621-.311-.7439-.314-1.145-.003-.4027.098-.789.303-1.1593.204-.3703.488-.6564.849-.856.362-.2007.74-.3021 1.135-.305zm.006.4508c-.316.0024-.62.0841-.91.2447-.289.1609-.516.3895-.681.6876-.165.298-.247.6092-.244.9339.002.3227.086.6298.252.9213.165.2914.395.5185.689.6802.294.1626.602.2418.922.2393.323-.0024.629-.0866.92-.2528.29-.1667.517-.397.678-.691.163-.2939.243-.6026.24-.9253-.002-.3247-.089-.6347-.258-.9302-.17-.2956-.401-.5214-.694-.677-.292-.156-.597-.2332-.914-.2307zm-1.02 3.0929-.018-2.4447.496-.0041c.465-.0033.726-.0029.782.0008.164.0127.292.0439.384.094.092.0509.168.1281.23.2328.062.1051.094.2213.095.3498.001.1765-.056.328-.17.454s-.276.2049-.484.2365c.074.0271.132.0574.172.0907.041.0324.096.0948.167.1868.019.0238.079.1223.182.296l.293.491-.614.0045-.207-.3954c-.14-.2652-.256-.4326-.347-.5008-.091-.069-.205-.1026-.344-.1014l-.128.0008.007 1.0042zm.486-1.3929.201-.0013c.287-.0024.465-.0143.534-.0373.069-.0226.123-.0616.163-.117.039-.0554.059-.1182.059-.1884-.001-.0682-.021-.1281-.06-.1815-.04-.0525-.096-.0903-.168-.1125s-.249-.0328-.533-.0304l-.201.0013z"></path></g></svg> 