<?xml version="1.0" encoding="UTF-8"?> <svg xmlns="http://www.w3.org/2000/svg" width="80" height="80" viewBox="0 0 80 80" fill="none"><g id="Icon / Check Doc"><g id="Group"><path id="Vector" d="M61.32 55.9273C61.3036 55.9273 61.3036 55.9273 61.32 55.9273L52.8901 62.7696L49.5836 58.9065C49.2235 58.4973 48.6178 58.4482 48.1922 58.7919C47.7666 59.1357 47.7339 59.7577 48.0776 60.1833L52.0062 64.783C52.3499 65.1922 52.9556 65.2413 53.3648 64.9139L62.5154 57.4661C62.941 57.1223 63.0065 56.5166 62.6627 56.091C62.3517 55.6491 61.7297 55.5836 61.3205 55.9273L61.32 55.9273Z" fill="#F47822"></path><path id="Vector_2" d="M72.7476 55.0759C70.5051 47.8082 63.9902 42.7007 56.395 42.2754L56.264 19.408V19.1297C56.264 18.8678 56.1658 18.6223 55.9694 18.4422L39.0601 1.7292C38.8964 1.5655 38.6836 1.46729 38.4708 1.45092L38.1271 1.41818H38.0289L14.6209 1.51639C10.3976 1.53276 6.9928 4.97025 7.02563 9.19334L7.25479 58.2841C7.25479 60.3138 8.07326 62.2617 9.51374 63.6859C10.9379 65.11 12.8857 65.9121 14.8991 65.8957H14.9319L38.0123 65.7648C40.9588 75.3568 51.1404 80.7422 60.7324 77.7796C70.3244 74.8331 75.6938 64.6683 72.7472 55.0756L72.7476 55.0759ZM52.9413 18.1962L45.0681 18.229C41.9253 18.2454 39.3717 15.7081 39.3553 12.5817L39.3226 4.74061L52.9413 18.1962ZM37.2431 61.3777C37.2922 62.1962 37.3904 62.9982 37.5378 63.8004L14.9322 63.9313H14.8995C11.773 63.9313 9.23578 61.4105 9.21944 58.284L8.99028 9.19329C8.97391 7.68737 9.56319 6.23048 10.6272 5.16652C11.6912 4.08614 13.1317 3.48048 14.6376 3.48048L37.3577 3.3659L37.4068 12.5815C37.4232 16.7883 40.8443 20.1928 45.0509 20.1928H45.0837L54.316 20.1436L54.4306 42.2582C44.3965 42.7984 36.7028 51.3592 37.2433 61.3772L37.2431 61.3777ZM55.3802 76.6171C46.4265 76.6171 39.1749 69.3654 39.1749 60.4118C39.1749 51.4581 46.4265 44.2065 55.3802 44.2065C64.3338 44.2229 71.5694 51.4581 71.5855 60.4118C71.5855 69.3654 64.3338 76.6171 55.3802 76.6171Z" fill="#1C2C57"></path><path id="Vector_3" d="M34.0824 37.6589H30.7595C30.2193 37.6589 29.7773 38.1009 29.7773 38.641C29.7773 39.1812 30.2193 39.6231 30.7595 39.6231H34.0824C34.6225 39.6231 35.0645 39.1812 35.0645 38.641C35.0645 38.1009 34.6225 37.6589 34.0824 37.6589Z" fill="#F47822"></path><path id="Vector_4" d="M46.5374 30.3256C46.5374 29.7854 46.0954 29.3435 45.5553 29.3435H17.9079C17.3677 29.3435 16.9258 29.7854 16.9258 30.3256C16.9258 30.8657 17.3677 31.3077 17.9079 31.3077H45.5553C46.0954 31.3077 46.5374 30.8657 46.5374 30.3256Z" fill="#F47822"></path><path id="Vector_5" d="M26.5191 37.6589H17.8923C17.3521 37.6589 16.9102 38.1009 16.9102 38.641C16.9102 39.1812 17.3521 39.6231 17.8923 39.6231H26.5191C27.0592 39.6231 27.5012 39.1812 27.5012 38.641C27.5012 38.1009 27.0756 37.6589 26.5191 37.6589Z" fill="#F47822"></path></g></g></svg> 