<?xml version="1.0" encoding="UTF-8"?> <svg xmlns="http://www.w3.org/2000/svg" fill="none" height="80" viewBox="0 0 80 80" width="80"><path d="m10.3739 63.6974c-1.97005.619-3.49452 2.1901-4.05392 4.1776-.02135.0771-.04089.1549-.05885.232-.09896.436-.1474.882-.14375 1.3292v4.9932c0 .518.41979.9375.93747.9375h30.70935c.5177 0 .9374-.4195.9374-.9375v-4.9937c.0037-.4474-.0447-.8937-.1437-1.3302-.0182-.0781-.0378-.1544-.0583-.2305h-.0003c-.5594-1.9874-2.0841-3.5586-4.0539-4.1773l-6.6747-2.1643-.0003-2.792c2.4292-1.4984 4.1193-3.946 4.6597-6.7486l.3612-1.2425.0003.0002c.7914-.2934 1.4474-.8677 1.8432-1.6135.3955-.7456.5036-1.6106.3031-2.4307-.2068-.8698-.818-1.5875-1.6435-1.9305v-4.337c0-3.888-2.0742-7.4806-5.4414-9.4246s-7.5153-1.944-10.8826 0c-3.3672 1.944-5.4414 5.5367-5.4414 9.4246v4.3354c-.8276.3425-1.4404 1.0612-1.64797 1.9323-.20026.8201-.09218 1.6849.30367 2.4305.3956.7456 1.0515 1.3195 1.843 1.613l.3612 1.2424c.5406 2.8023 2.2307 5.25 4.6598 6.7487v2.7919zm23.4933 1.7836c1.369.4252 2.4313 1.5123 2.8245 2.8906.0149.0534.0281.107.0409.1601h-.0003c.0659.2967.0974.5998.0938.9034v4.0558h-28.83335v-4.0552c-.00338-.3042.02865-.6076.09479-.9044.0125-.0532.02605-.1065.04063-.1596.39323-1.3787 1.45547-2.4657 2.82423-2.8907l6.9433-2.2513c2.8503 1.3849 6.1784 1.3849 9.0287 0zm-10.6793-24.5567c.8604.8808 3.0289 2.7326 6.6508 3.5336-2.375-.2474-6.0578-.9651-9.2527-3.0236.9126-.1368 1.7797-.3068 2.6018-.5099zm-9.784-.4857c0-3.2182 1.7169-6.1919 4.5039-7.8013 2.787-1.6091 6.2208-1.6091 9.008 0 2.787 1.6091 4.504 4.5828 4.504 7.8013v2.3969c-2.9802-.4-5.0026-1.6385-6.1232-2.5385 1.5258-.5159 2.9612-1.269 4.2528-2.2313.4034-.3174.4766-.9.1644-1.3073-.312-.4072-.8938-.4877-1.305-.1807-4.8792 3.742-13.6333 3.3466-13.7206 3.3428-.2493-.0128-.4933.0742-.6779.2421-.1849.1677-.2951.4021-.3065.6516l-.1643 3.6109c-.0021.1086-.0513.2112-.1344.2813zm.8187 11.162c-.0057-.0296-.0127-.0593-.021-.0885l-.4941-1.6997c-.0729-.3831-.3752-.681-.7594-.7482-.3617-.0633-.6898-.2524-.926-.5339-.236-.2815-.3651-.6372-.3643-1.0046 0-.1258.0148-.2513.0447-.3735.068-.2974.28-.5411.5652-.65.6841.286 1.4646.2198 2.0908-.1768.6263-.3969 1.0196-1.0745 1.0532-1.8151l.1229-2.6987h.0073c.5669 0 1.3594-.0167 2.2968-.0805 5.8995 4.9966 14.1967 4.7388 14.554 4.7253.0045 0 .0089-.0011.0136-.0011v-.0002c.3518.0752.6286.3469.7104.6971.1023.4198.0265.8633-.2094 1.2256-.2359.3619-.6112.6104-1.0365.6862-.3651.0679-.6567.3429-.7463.7031l-.5073 1.7448c-.0083.0292-.0154.0586-.0211.0885l.0003-.0002c-.4826 2.5653-2.1396 4.7562-4.4766 5.9187-2.337 1.1627-5.0838 1.1627-7.4206 0-2.337-1.1625-3.9938-3.3534-4.4764-5.9187zm8.1874 8.666v-.0002c1.1888.0005 2.3687-.2073 3.4859-.6138v1.988c-2.2156 1.0031-4.7563 1.0031-6.972 0v-1.988c1.1169.4065 2.2966.6143 3.4854.6138z" fill="#000"></path><path d="m73.8776 74.4267v-5.9239c.0002-1.1989-.3753-2.368-1.074-3.3425-.6986-.9742-1.6851-1.7052-2.8208-2.0896l-4.1789-1.4166c1.4008-.7154 2.5279-1.8708 3.2086-3.2888.6805-1.4178.8771-3.0198.5594-4.5602l-.7951-3.8552-.0003-.0002c.5271-.3732.9297-.8964 1.1558-1.5016.2258-.6049.2646-1.264.1112-1.8914-.1909-.8034-.7487-1.4698-1.5058-1.7994l.0141-3.7906c.0143-1.9323-.4818-3.8339-1.438-5.513-.9562-1.6792-2.3388-3.0761-4.0078-4.0495s-3.5656-1.4891-5.4979-1.4948c-1.932-.0057-3.8318.4987-5.5066 1.4625-1.6747.9636-3.0653 2.3524-4.0315 4.0258-.9661 1.6732-1.4735 3.5722-1.4706 5.5044l.0099 3.4362v.0216l.0091.4042.0003-.0003c-.7503.3321-1.3024.9956-1.492 1.7938-.1664.6799-.1065 1.3956.1706 2.0385.2768.6427.756 1.1779 1.3644 1.524l-.9349 3.5135c-.4094 1.5365-.2977 3.1651.3174 4.6313.6151 1.4661 1.6992 2.687 3.0823 3.4713l-3.9388 1.3348c-1.1357.3847-2.1224 1.1154-2.8211 2.0899-.6984.9745-1.0739 2.1435-1.0736 3.3425v5.9239c0 .5177.4198.9375.9374.9375h30.7094c.2487 0 .4872-.099.663-.2748.1758-.176.2745-.4145.2745-.6632zm-20.5714-12.128 3.3316 3.3227v2.1083l-5.0029-4.8646zm3.405-2.2526h1.7474v-.0002c.7484-.0008 1.4934-.0967 2.2177-.2852v1.0739l-3.0911 3.0831-3.0912-3.0831v-1.0739l-.0002.0003c.7242.1883 1.4692.2841 2.2177.2849zm1.8015 5.5943 3.3508-3.3419 1.6711.5664-5.0219 4.8836zm8.172-7.0713c-.9833 1.2348-2.4661 1.9664-4.0443 1.9956v.0174l-.0888-.0302v-1.5013h-.0002c2.3208-1.2112 4.1078-3.243 5.0122-5.6998l.1719.8331c.3208 1.5453-.0643 3.1532-1.0508 4.3852zm-9.1093-26.7714c2.4239 0 4.7476.967 6.456 2.6862 1.7086 1.7196 2.6604 4.0495 2.645 6.4732l-.0112 3.055v.0002c-2.3945-.1828-4.6677-1.1273-6.4864-2.6956 1.4494-1.2349 2.6612-2.7239 3.5765-4.3937.1263-.2167.1607-.4753.0953-.7175-.0656-.2422-.2255-.4482-.444-.5713-.2187-.1235-.4776-.1542-.7187-.0852-.2414.069-.4448.2318-.5651.4521-1.1287 1.9977-3.4771 6.1544-10.9027 6.569l-.0359.0021c-.7032.0393-1.3594.5229-1.7159 1.2614l-.0003-.0002c-.0583.1179-.1552.2125-.2744.2679-.2271.1071-.4972.0605-.675-.1166l-.0352-.0354-.0091-3.05c.0026-2.413.9622-4.7264 2.6684-6.4328 1.7063-1.7063 4.0198-2.6662 6.4328-2.6688zm-10.6274 15.2054c.081-.3329.3688-.5743.7104-.5961.2935-.0269.5573-.1901.712-.4412.5451.1297 1.1182.0698 1.625-.17.5065-.2396.9164-.6448 1.1618-1.1487.0356-.0805.0906-.1508.1599-.205h.0073c1.5588-.0869 4.4062-.2466 7.294-2.0065v.0003c2.2328 2.0638 5.113 3.2885 8.1486 3.4648.1451.2852.4261.4766.7448.5066.3417.0218.6297.2635.7104.5966.0255.1047.0383.2125.0383.3203.0005.3153-.1101.6211-.3128.8627-.2028.2417-.4843.4039-.795.4584-.4508.0846-.7768.4789-.7758.9374-.018 2.2141-.8477 4.3451-2.3316 5.9883-1.5177 1.6776-3.5018 2.6013-5.5864 2.6013h-1.7472c-2.0848 0-4.0687-.9236-5.5864-2.6013-1.4865-1.6477-2.3162-3.7839-2.331-6.0029 0-.4554-.3274-.8451-.7758-.9235-.3107-.0544-.5922-.2166-.7951-.4583-.2026-.2417-.3135-.5471-.3128-.8627-.0002-.1078.0123-.2156.0378-.3206zm1.3771 11.5353h.0003c-.9042-1.2851-1.1922-2.9047-.7868-4.4227l.1466-.5505v-.0003c.9282 2.3646 2.6808 4.3133 4.9336 5.4868v1.501l-.5854.1985v-.0003c-1.495-.1742-2.8445-.9794-3.7078-2.2125zm-5.1573 9.9653.0003-.0002c0-.807.2526-1.5938.7229-2.2495.4703-.656 1.1342-1.1479 1.8985-1.4068l3.8513-1.3052 6.9974 6.804v3.144h-13.47zm28.834 4.9865-13.4886-.0003v-3.125l7.0153-6.8226 3.8513 1.3052v.0002c.7646.2589 1.4284.7508 1.8987 1.4066.4703.6559.7232 1.4427.7229 2.2497z" fill="#000"></path><g fill="#f47822"><path d="m46.9076 14.3191c-.8274-1.7164-2.3027-3.0341-4.1014-3.663-1.7986-.6286-3.7734-.5174-5.4901.3099-1.7167.8271-3.0344 2.3021-3.6633 4.1008-.6291 1.7987-.5177 3.7735.3091 5.4901.8271 1.7167 2.3018 3.0347 4.1006 3.6638 1.7986.6292 3.7734.5183 5.4901-.3085 1.7156-.829 3.032-2.3044 3.6612-4.1029.6289-1.7985.5188-3.773-.3062-5.4902zm-4.1688 7.9034c-1.269.6114-2.7289.6934-4.0583.2286-1.3297-.4651-2.4201-1.4393-3.0316-2.7081-.6112-1.269-.6934-2.7289-.2283-4.0583.4648-1.3297 1.439-2.4201 2.708-3.0315 1.2688-.6112 2.7287-.6935 4.0584-.2287 1.3294.4651 2.42 1.4391 3.0312 2.7081.6099 1.2693.6912 2.7287.2263 4.0575-.4648 1.3292-1.438 2.4198-2.7057 3.0323z"></path><path d="m36.1572 6.38829c-.2247-.46641-.7851-.6625-1.2515-.43776s-.6623.78513-.4375 1.25153l1.0377 2.15367-.0003.00026c.1068.22604.2993.40026.5349.48385.2357.08334.4948.06928.7201-.03906.2253-.10859.3979-.30261.4794-.53906.0815-.2362.0651-.49531-.0453-.7198z"></path><path d="m44.1165 25.0816c-.2239.1078-.3958.3003-.4781.5352-.082.2346-.0674.4924.0406.7164l1.0375 2.1536c.2247.4664.7851.6625 1.2515.4378.4664-.2248.6623-.7851.4375-1.2515l-1.0377-2.1537.0003-.0003c-.1081-.2239-.3006-.3958-.5352-.4781-.2346-.082-.4924-.0675-.7164.0406z"></path><path d="m50.669 11.4664-2.1537 1.0378-.0003-.0003c-.4664.2248-.6622.7852-.4375 1.2516.2248.4664.7849.6625 1.2516.4377l2.1536-1.0377c.4664-.2248.6625-.7852.4378-1.2516s-.7851-.6622-1.2515-.4375z"></path><path d="m29.7982 23.5023c.1409-.0002.2797-.0323.4063-.0937l2.1536-1.0377h.0003c.226-.1066.4002-.299.4838-.5347.0834-.2357.0693-.495-.039-.7203-.1086-.225-.3026-.3977-.5391-.4792-.2362-.0815-.4953-.0653-.7198.0451l-2.1537 1.0374c-.3945.1899-.6052.6274-.5075 1.054.0976.4268.4776.7292.9151.7286z"></path><path d="m43.9199 4.6284-1.2656 3.6198c-.1708.4888.087 1.02367.5755 1.19453.4888.17084 1.0237-.08672 1.1946-.57552l1.2656-3.6198c.1708-.4888-.0868-1.02367-.5756-1.19453-.4888-.1711-1.0236.08672-1.1945.57552z"></path><path d="m36.4434 26.0084-1.2656 3.6201c-.1709.4888.0867 1.0237.5755 1.1945.4888.1709 1.0237-.0867 1.1945-.5755l1.2656-3.6201c.1711-.4888-.0867-1.0236-.5755-1.1945-.4888-.1708-1.0235.0867-1.1943.5755z"></path><path d="m48.4275 20.2343c-.0821.2346-.0675.4922.0406.7164.1078.224.3003.3958.5352.4779l3.6198 1.2656c.4888.1708 1.0234-.087 1.1942-.5755.1711-.4888-.0867-1.0237-.5755-1.1946l-3.6198-1.2651c-.4885-.1703-1.0229.087-1.1945.5753z"></path><path d="m27.6284 13.951 3.6198 1.2656c.4888.1708 1.0235-.087 1.1945-.5755.1709-.4888-.087-1.0237-.5758-1.1946l-3.6198-1.2656c-.4888-.1708-1.0234.087-1.1942.5758-.1711.4885.0867 1.0235.5755 1.1943z"></path></g></svg> 