<?xml version="1.0" encoding="UTF-8"?> <svg xmlns="http://www.w3.org/2000/svg" xmlns:xlink="http://www.w3.org/1999/xlink" fill="none" height="43" viewBox="0 0 157 43" width="157"><linearGradient id="a" gradientUnits="userSpaceOnUse" x1="170.424" x2=".559968" y1="21.6569" y2="15.9782"><stop offset=".08" stop-color="#0228a0"></stop><stop offset=".43" stop-color="#0095d6"></stop><stop offset=".61" stop-color="#00c6c1"></stop><stop offset="1" stop-color="#a1e2b7"></stop></linearGradient><clipPath id="b"><path d="m.599609.094849h156v42.8103h-156z"></path></clipPath><g clip-path="url(#b)"><path d="m35.1168 23.8535c0-9.4138-7.3965-16.58624-17.0344-16.58624-4.4828 0-8.29314 1.34483-11.43107 4.03444-3.81034 3.3621-6.051721 8.069-6.051721 13 0 9.1897 7.844831 16.8104 17.258591 16.8104 2.9138 0 4.9311-.4483 7.6207-1.569l2.9138 3.3621 5.6035-4.7069-2.6897-3.1379c2.4655-3.138 3.8103-7.1724 3.8103-11.2069zm-9.1896 4.931-3.8103-4.4828-5.8276 4.4828 3.8103 4.4828c-.6724.2241-1.1207.2241-2.2414.2241-5.1551 0-9.18963-4.0345-9.18963-9.4138s4.03453-9.6379 9.18963-9.6379c5.1552 0 9.1897 4.2586 9.1897 9.4138 0 1.5689-.4483 3.362-1.1207 4.931zm78.6728-28.6896514h8.517v39.6724514h-8.517zm14.569 0h8.517v39.6724514h-8.517zm27.793 20.8448514c6.948 2.2414 9.638 4.931 9.638 9.862 0 6.0518-4.707 10.0863-12.104 10.0863-7.396 0-11.879-3.8104-12.103-10.0863h8.069c.448 2.6897 1.569 3.8104 4.034 3.8104 2.017 0 3.362-1.1207 3.362-2.9138s-1.12-2.6897-5.827-4.2586c-6.724-2.0173-9.638-4.9311-9.638-9.8621 0-5.8276 4.707-9.86206 11.879-9.86206s11.431 3.81036 11.655 10.08616h-7.845v-.4482c0-1.7931-1.569-3.138-4.034-3.138-2.017 0-3.362 1.1207-3.362 2.9138 0 .8966.224 1.569.896 2.0173.747.2988 2.541.8965 5.38 1.7931zm-46.621 3.8103c0-10.0862-6.7242-17.03446-16.5862-17.03446-9.8621 0-16.3621 6.72416-16.3621 16.58616 0 9.8621 6.9483 16.5863 17.0345 16.5863 6.5 0 12.1034-3.3621 15.0172-9.4138l-7.8448-2.2414c-1.3448 2.4655-4.0345 4.0345-7.1724 4.0345-4.2586 0-8.5172-2.6897-8.5172-6.9483h24.431zm-24.2069-4.7069c.2241-2.6896 3.3621-4.931 8.069-4.931s7.6206 2.4655 8.0689 4.931zm-21.069 13.4483c2.2414 0 4.2586-.6724 6.5-2.6897l4.7069 5.6035c-3.5862 3.1379-7.3965 4.7069-12.1034 4.7069-9.638 0-16.5862-6.9483-16.5862-16.5862s6.9482-16.81036 16.5862-16.81036c4.2586 0 8.0689 1.34483 11.6551 4.48276l-4.7069 5.8276c-1.7931-1.7931-3.8103-2.6897-6.4999-2.6897-4.7069 0-8.2932 3.8104-8.2932 8.9655 0 5.1552 3.5863 9.1897 8.7414 9.1897z" fill="url(#a)"></path></g></svg> 