<?xml version="1.0" encoding="UTF-8"?> <svg xmlns="http://www.w3.org/2000/svg" xmlns:xlink="http://www.w3.org/1999/xlink" fill="none" height="54" viewBox="0 0 285 54" width="285"><clipPath id="a"><path d="m0 0h284.727v54h-284.727z"></path></clipPath><g clip-path="url(#a)"><path d="m36.2143 47.3569c-12.5485 0-20.4613-10.2623-20.3898-22.8769.0706-12.2611 7.131-22.45393 19.0608-23.15178-2.5995-.857954-5.3709-1.32822-8.2525-1.32822-14.709 0-26.6328 12.0879-26.6328 26.9995s11.9238 26.9995 26.6328 26.9995c7.9962 0 15.163-3.5768 20.0451-9.2331-3.1329 1.6514-6.689 2.59-10.4646 2.59z" fill="#f47821"></path><path d="m16.2159 19.741c2.5996-1.8156 5.948-2.9082 9.6024-2.9082 8.2694 0 14.9733 5.5948 14.9733 12.4958 0 1.1258-.1798 2.2174-.5145 3.2556.0109-.0081.0218-.0171.0327-.0252 4.3567-3.2042 7.1926-8.4034 7.1926-14.2771 0-8.059-5.3361-14.85117-12.62-16.95378-10.3504.60722-17.0334 8.36207-18.6665 18.41288z" fill="#fcdd00"></path><path d="m28.0901 37.4852c-3.6684 0-7.3814-1.2819-10.4776-3.026 2.9989 7.628 9.6104 12.8976 18.6019 12.8976 3.7746 0 7.3317-.9385 10.4646-2.59-.2136.2467-.4311.4894-.6526.7281 4.6864-4.8668 7.575-11.521 7.575-18.86 0-5.7238-1.7612-11.0276-4.758-15.3949.6804 2.1217 1.0519 4.3834 1.0519 6.7348 0 12.0255-9.9421 19.5104-21.8052 19.5104z" fill="#f89522"></path><path d="m63.177 28.3026c1.7254 1.5548 3.6415 2.3322 6.0512 2.3322 2.4098 0 4.2445-1.1379 4.2445-2.6373s-1.6151-2.304-4.9835-3.2757c-3.2034-.9164-6.4893-2.1933-6.4893-5.7741 0-3.5809 3.0117-5.5798 7.0644-5.5798 2.684 0 5.4494 1.2215 7.147 3.1922l-2.3006 2.304c-1.2873-1.443-3.122-2.2204-5.0659-2.2204-2.2727 0-3.5868.8609-3.5868 2.2758 0 1.2486 1.4512 1.8599 4.6278 2.7763 3.6415 1.0553 6.8181 2.5537 6.8181 6.2181 0 3.6645-3.4776 6.0239-7.5849 6.0239-3.2581 0-5.942-1.1933-8.1323-3.2476z" fill="#243f8b"></path><path d="m92.6675 26.6925c0 3.9695-3.1766 7.2171-7.1191 7.2171s-7.1191-3.2476-7.1191-7.2171c0-3.9696 3.2035-7.2172 7.1191-7.2172 3.9157 0 7.1191 3.2204 7.1191 7.2172zm-7.1201 3.9413c2.1357 0 3.8879-1.7763 3.8879-3.9423 0-2.1661-1.7522-3.9414-3.8879-3.9414-2.1356 0-3.8878 1.7763-3.8878 3.9414 0 2.165 1.7522 3.9423 3.8878 3.9423z" fill="#243f8b"></path><path d="m98.253 33.6316h-3.2313v-20.8186h3.2313v20.8196z" fill="#243f8b"></path><path d="m107.399 19.4753c1.726 0 3.314.9164 4.217 1.9989v-1.7209h3.231v13.8794h-3.231v-1.7764c-.904 1.1379-2.492 2.0543-4.217 2.0543-3.915 0-6.791-3.2476-6.791-7.2171 0-3.9696 2.875-7.2172 6.791-7.2172zm-3.56 7.2172c0 2.165 1.753 3.9423 3.888 3.9423 2.136 0 3.888-1.7763 3.888-3.9423 0-2.1661-1.752-3.9414-3.888-3.9414-2.135 0-3.888 1.7763-3.888 3.9414z" fill="#243f8b"></path><path d="m118.023 33.6317v-13.8794h3.231v1.582c.931-1.1107 2.355-1.8599 4.108-1.8599v3.1086c-.11-.0282-.247-.0282-.356-.0282-2.053 0-3.752 1.4712-3.752 3.5808v7.4951h-3.231z" fill="#243f8b"></path><path d="m127.443 33.6316v-19.9868h12.76v3.2757h-9.529v4.6916h8.433v3.2758h-8.433v5.4689h9.529v3.2758h-12.76z" fill="#f47821"></path><path d="m142.776 33.6316v-13.8793h3.232v1.4994c1.013-1.0825 2.492-1.7764 4.107-1.7764 3.177 0 5.367 2.2758 5.367 5.8013v8.3561h-3.231v-7.6612c0-2.3322-1.205-3.4148-2.931-3.4148-1.862 0-3.313 1.3877-3.313 3.5809v7.4951h-3.232z" fill="#f47821"></path><path d="m164.819 19.4753c3.888 0 6.544 2.8871 6.544 7.0228 0 .5277-.082 1.1107-.137 1.6656h-10.186c.547 1.7209 2.081 2.7763 4.107 2.7763 1.314 0 2.574-.4723 3.395-1.3877l2.053 2.0815c-1.314 1.4712-3.231 2.2758-5.476 2.2758-4.135 0-7.284-3.1368-7.284-7.2171 0-4.0804 3.012-7.2172 6.982-7.2172zm-3.833 6.1346h7.339c-.275-1.9706-1.726-3.1921-3.561-3.1921-1.834 0-3.505 1.2768-3.778 3.1921z" fill="#f47821"></path><path d="m173.719 33.6317v-13.8794h3.232v1.582c.93-1.1107 2.355-1.8599 4.107-1.8599v3.1086c-.109-.0282-.246-.0282-.356-.0282-2.053 0-3.751 1.4712-3.751 3.5808v7.4951h-3.232z" fill="#f47821"></path><path d="m188.56 19.4753c1.726 0 3.314.9164 4.217 1.9989v-1.7209h3.231v13.6024c0 4.1358-2.765 6.6623-7.311 6.6623-2.163 0-4.436-.7492-6.051-2.2486l2.245-2.2758c1.068.9163 2.519 1.4158 3.861 1.4158 2.547 0 4.025-1.2487 4.025-3.3311v-1.721c-.904 1.1379-2.492 2.0543-4.217 2.0543-3.915 0-6.791-3.2476-6.791-7.2171 0-3.9696 2.876-7.2171 6.791-7.2171zm-3.56 7.2172c0 2.165 1.753 3.9423 3.888 3.9423 2.136 0 3.888-1.7763 3.888-3.9423 0-2.1661-1.752-3.9414-3.888-3.9414-2.135 0-3.888 1.7763-3.888 3.9414z" fill="#f47821"></path><path d="m197.815 19.7522h3.505l3.944 9.7709 3.752-9.7709h3.505l-6.435 16.3778c-1.041 2.6373-2.902 3.8859-5.449 3.8859-.41 0-.849 0-1.259-.0281v-3.165c.246 0 .492.0282.766.0282 1.288 0 2.164-.4995 2.794-1.9435l.547-1.2769-5.668-13.8794z" fill="#f47821"></path><path d="m212.766 13.6458h3.478l4.135 14.5178 4.134-14.5178h3.177l4.162 14.5178 4.135-14.5178h3.478l-6.051 19.9867h-3.122l-4.19-13.6578-4.162 13.6578h-3.122z" fill="#243f8b"></path><path d="m253.128 26.6925c0 3.9695-3.177 7.2171-7.119 7.2171-3.943 0-7.119-3.2476-7.119-7.2171 0-3.9696 3.203-7.2172 7.119-7.2172 3.915 0 7.119 3.2204 7.119 7.2172zm-7.12 3.9413c2.135 0 3.888-1.7763 3.888-3.9423 0-2.1661-1.753-3.9414-3.888-3.9414-2.136 0-3.888 1.7763-3.888 3.9414 0 2.165 1.752 3.9423 3.888 3.9423z" fill="#243f8b"></path><path d="m255.483 33.6317v-13.8794h3.231v1.582c.931-1.1107 2.355-1.8599 4.108-1.8599v3.1086c-.11-.0282-.247-.0282-.356-.0282-2.053 0-3.752 1.4712-3.752 3.5808v7.4951h-3.231z" fill="#243f8b"></path><path d="m268.133 33.6316h-3.231v-20.8186h3.231v20.8196z" fill="#243f8b"></path><path d="m277.279 19.4752c1.726 0 3.314.9164 4.217 1.9989v-7.8283h3.231v19.9867h-3.231v-1.7763c-.904 1.1379-2.492 2.0543-4.217 2.0543-3.915 0-6.791-3.2476-6.791-7.2171 0-3.9696 2.876-7.2172 6.791-7.2172zm-3.56 7.2172c0 2.165 1.752 3.9423 3.888 3.9423s3.888-1.7763 3.888-3.9423c0-2.1661-1.752-3.9414-3.888-3.9414s-3.888 1.7763-3.888 3.9414z" fill="#243f8b"></path><path d="m179.277 37.6213h-113.8046v1.007h113.8046z" fill="#23408a"></path><path d="m282.794 37.6213h-73.825v1.007h73.825z" fill="#23408a"></path><g fill="#243f8b"><path d="m97.8407 41.3824c1.4691 0 2.6633 1.0774 2.6633 2.5668 0 .8106-.368 1.5155-.9836 1.9676.7996.4925 1.2856 1.3162 1.2856 2.3 0 1.582-1.2727 2.739-2.8332 2.739h-4.1839v-9.5745h4.0528zm-2.5052 1.5688v2.2608h2.532c.6029 0 1.0887-.5187 1.0887-1.1299s-.4987-1.1298-1.1145-1.1298h-2.5052zm0 3.8296v2.6061h2.6363c.7082 0 1.2853-.585 1.2853-1.303s-.5771-1.3031-1.2853-1.3031z"></path><path d="m104.976 44.1748c1.862 0 3.135 1.3826 3.135 3.3644 0 .2527-.04.5317-.066.7975h-4.879c.262.8247.997 1.3302 1.968 1.3302.629 0 1.232-.2265 1.626-.6646l.983.997c-.63.7048-1.547 1.0905-2.623 1.0905-1.981 0-3.489-1.5024-3.489-3.457s1.444-3.457 3.345-3.457zm-1.836 2.9384h3.515c-.131-.9445-.826-1.5296-1.705-1.5296s-1.679.6112-1.81 1.5296z"></path><path d="m108.95 47.6318c0-1.9143 1.535-3.457 3.41-3.457.97 0 1.85.4119 2.466 1.0775l-1.088 1.1037c-.341-.3726-.84-.6113-1.378-.6113-1.023 0-1.862.8509-1.862 1.8881s.839 1.8881 1.862 1.8881c.537 0 1.036-.2396 1.378-.6253l1.088 1.1167c-.616.6647-1.495 1.0775-2.466 1.0775-1.875 0-3.41-1.5558-3.41-3.457z"></path><path d="m118.604 44.1748c.826 0 1.587.4391 2.02.9577v-.8248h1.548v6.6482h-1.548v-.8509c-.433.5448-1.194.9838-2.02.9838-1.875 0-3.253-1.5558-3.253-3.457s1.378-3.457 3.253-3.457zm-1.705 3.457c0 1.0372.84 1.8881 1.863 1.8881s1.862-.8509 1.862-1.8881-.839-1.8881-1.862-1.8881-1.863.8509-1.863 1.8881z"></path><path d="m125.241 44.3076v3.6705c0 1.1037.577 1.6354 1.404 1.6354.892 0 1.587-.6777 1.587-1.7149v-3.59h1.548v6.6482h-1.548v-.718c-.486.5186-1.194.8509-1.968.8509-1.521 0-2.57-1.0906-2.57-2.7793v-4.0028z"></path><path d="m131.747 48.8815c.511.4522 1.245.7845 1.98.7845.656 0 1.167-.279 1.167-.6385 0-.5588-.826-.731-1.312-.864-1.076-.3061-2.532-.6253-2.532-2.0482 0-1.1298 1.089-1.9415 2.571-1.9415 1.023 0 1.968.3857 2.61.9708l-.852 1.0634c-.472-.4119-1.128-.6113-1.757-.6113-.682 0-1.01.2397-1.01.5317 0 .3585.655.5055 1.364.6777 1.298.3061 2.466.7714 2.466 2.2073 0 1.1963-1.167 2.0744-2.754 2.0744-1.089 0-2.073-.3987-2.86-1.1298l.918-1.0775z"></path><path d="m140.495 44.1748c1.862 0 3.135 1.3826 3.135 3.3644 0 .2527-.04.5317-.066.7975h-4.879c.262.8247.997 1.3302 1.968 1.3302.629 0 1.232-.2265 1.626-.6646l.983.997c-.63.7048-1.548 1.0905-2.623 1.0905-1.981 0-3.489-1.5024-3.489-3.457s1.443-3.457 3.345-3.457zm-1.836 2.9384h3.515c-.131-.9445-.826-1.5296-1.705-1.5296s-1.679.6112-1.81 1.5296z"></path><path d="m147.682 42.9512v-1.5689h7.464v1.5689h-2.951v8.0046h-1.548v-8.0046h-2.964z"></path><path d="m161.35 47.6318c0 1.9012-1.521 3.457-3.41 3.457-1.888 0-3.41-1.5558-3.41-3.457s1.535-3.457 3.41-3.457c1.876 0 3.41 1.5427 3.41 3.457zm-3.41 1.8881c1.023 0 1.863-.8509 1.863-1.8881s-.84-1.8881-1.863-1.8881-1.862.8509-1.862 1.8881.839 1.8881 1.862 1.8881z"></path><path d="m162.479 44.3077h1.547v.718c.486-.5186 1.194-.8509 1.968-.8509.997 0 1.784.4652 2.203 1.2497.59-.7583 1.286-1.2497 2.335-1.2497 1.521 0 2.57 1.0906 2.57 2.7793v4.0028h-1.547v-3.6705c0-1.1167-.577-1.6353-1.404-1.6353-.892 0-1.587.6646-1.587 1.6887v3.6171h-1.548v-3.6705c0-1.1167-.577-1.6353-1.403-1.6353-.892 0-1.588.6646-1.588 1.7149v3.5899h-1.547v-6.6482z"></path><path d="m181.052 47.6318c0 1.9012-1.522 3.457-3.41 3.457-1.889 0-3.41-1.5558-3.41-3.457s1.534-3.457 3.41-3.457c1.875 0 3.41 1.5427 3.41 3.457zm-3.411 1.8881c1.023 0 1.862-.8509 1.862-1.8881s-.839-1.8881-1.862-1.8881-1.863.8509-1.863 1.8881.84 1.8881 1.863 1.8881z"></path><path d="m182.179 50.9559v-6.6482h1.548v.7583c.446-.5317 1.128-.8912 1.968-.8912v1.4893c-.053-.013-.119-.013-.171-.013-.984 0-1.797.7049-1.797 1.7149v3.5899z"></path><path d="m186.692 50.9559v-6.6482h1.547v.7583c.446-.5317 1.129-.8912 1.968-.8912v1.4893c-.052-.013-.118-.013-.171-.013-.983 0-1.797.7049-1.797 1.7149v3.5899z"></path><path d="m197.368 47.6318c0 1.9012-1.522 3.457-3.41 3.457s-3.41-1.5558-3.41-3.457 1.535-3.457 3.41-3.457 3.41 1.5427 3.41 3.457zm-3.41 1.8881c1.023 0 1.862-.8509 1.862-1.8881s-.839-1.8881-1.862-1.8881-1.863.8509-1.863 1.8881.84 1.8881 1.863 1.8881z"></path><path d="m197.604 44.3076h1.626l1.233 4.2687 1.207-4.2687h1.417l1.206 4.2687 1.233-4.2687h1.626l-2.033 6.6482h-1.666l-1.076-3.5507-1.088 3.5507h-1.653l-2.034-6.6482z"></path><path d="m211.613 41.3823h1.312l3.057 5.5848 3.056-5.5848h1.312v9.5745h-1.547v-5.8113l-2.243 4.0692h-1.154l-2.243-4.0692v5.8113h-1.548v-9.5745z"></path><path d="m224.887 44.1748c.826 0 1.587.4391 2.02.9577v-.8248h1.548v6.6482h-1.548v-.8509c-.433.5448-1.194.9838-2.02.9838-1.875 0-3.253-1.5558-3.253-3.457s1.378-3.457 3.253-3.457zm-1.706 3.457c0 1.0372.84 1.8881 1.863 1.8881s1.862-.8509 1.862-1.8881-.839-1.8881-1.862-1.8881-1.863.8509-1.863 1.8881z"></path><path d="m230.028 44.3078c.341 0 .577-.2266.577-.572v-1.2104h1.548v1.7824h1.666v1.5689h-1.666v2.3805c0 1.0503.157 1.3161.787 1.3161.289 0 .551-.0402.879-.1067v1.4893c-.302.0796-.735.133-1.089.133-1.495 0-2.125-.6918-2.125-2.3665v-2.8457h-1.206v-1.5689z"></path><path d="m235.131 44.3078c.341 0 .577-.2266.577-.572v-1.2104h1.548v1.7824h1.665v1.5689h-1.665v2.3805c0 1.0503.157 1.3161.786 1.3161.289 0 .552-.0402.879-.1067v1.4893c-.301.0796-.735.133-1.088.133-1.495 0-2.125-.6918-2.125-2.3665v-2.8457h-1.207v-1.5689z"></path><path d="m243.04 44.1748c1.862 0 3.135 1.3826 3.135 3.3644 0 .2527-.04.5317-.066.7975h-4.879c.262.8247.997 1.3302 1.968 1.3302.629 0 1.232-.2265 1.627-.6646l.983.997c-.63.7048-1.547 1.0905-2.623 1.0905-1.981 0-3.489-1.5024-3.489-3.457s1.444-3.457 3.345-3.457zm-1.837 2.9384h3.515c-.131-.9445-.826-1.5296-1.705-1.5296s-1.679.6112-1.81 1.5296z"></path><path d="m247.303 50.9559v-6.6482h1.548v.7583c.446-.5317 1.128-.8912 1.967-.8912v1.4893c-.052-.013-.118-.013-.171-.013-.983 0-1.796.7049-1.796 1.7149v3.5899z"></path><path d="m252.261 48.8815c.511.4522 1.245.7845 1.98.7845.656 0 1.167-.279 1.167-.6385 0-.5588-.826-.731-1.312-.864-1.075-.3061-2.532-.6253-2.532-2.0482 0-1.1298 1.089-1.9415 2.571-1.9415 1.023 0 1.968.3857 2.61.9708l-.852 1.0634c-.472-.4119-1.128-.6113-1.758-.6113-.682 0-1.01.2397-1.01.5317 0 .3585.655.5055 1.364.6777 1.298.3061 2.466.7714 2.466 2.2073 0 1.1963-1.167 2.0744-2.754 2.0744-1.089 0-2.072-.3987-2.86-1.1298l.918-1.0775z"></path></g></g></svg> 