<?xml version="1.0" encoding="UTF-8"?> <svg xmlns="http://www.w3.org/2000/svg" width="80" height="80" viewBox="0 0 80 80" fill="none"><g id="Icon / Monitoring"><g id="Group"><path id="Vector" d="M71.3601 59.2205C72.9322 59.2205 74.4417 58.5945 75.5547 57.4815C76.6677 56.3685 77.2938 54.859 77.2938 53.2869V13.0173C77.2938 11.4452 76.6677 9.93573 75.5547 8.82273C74.4417 7.70974 72.9322 7.08368 71.3601 7.08368H9.53326C7.96116 7.08368 6.45166 7.70974 5.33866 8.82273C4.22567 9.93573 3.59961 11.4452 3.59961 13.0173V53.2869C3.59961 54.859 4.22567 56.3685 5.33866 57.4815C6.45166 58.5945 7.96116 59.2205 9.53326 59.2205H30.3463V70.9626H25.7899C25.2474 70.9626 24.8091 71.4009 24.8091 71.9435C24.8091 72.486 25.2474 72.9243 25.7899 72.9243H55.9591C56.5016 72.9243 56.9399 72.486 56.9399 71.9435C56.9399 71.4009 56.5016 70.9626 55.9591 70.9626H50.5471V59.2205H71.3601ZM5.56126 13.0173C5.56126 11.96 5.97864 10.9513 6.72991 10.207C7.47422 9.46271 8.48983 9.04533 9.54022 9.03838H71.3671C72.4244 9.03838 73.4331 9.46271 74.1774 10.207C74.9217 10.9513 75.3391 11.96 75.346 13.0173V48.2506C75.2278 48.2019 75.0956 48.1741 74.9704 48.1741H5.9369C5.80473 48.1741 5.67952 48.2019 5.56126 48.2506V13.0173ZM48.5924 70.9626H32.301V59.2205H48.5855V70.9626H48.5924ZM9.53326 57.2658C8.47592 57.2658 7.46727 56.8485 6.72295 56.0972C5.97864 55.3529 5.55431 54.3442 5.55431 53.2869V50.0522C5.67256 50.1009 5.80473 50.1288 5.92994 50.1288H74.9565C75.0887 50.1288 75.2139 50.1009 75.3321 50.0522V53.2869C75.3321 54.3442 74.9147 55.3529 74.1635 56.0972C73.4122 56.8415 72.4105 57.2658 71.3532 57.2658H9.53326Z" fill="#1C2C57"></path></g><path id="Vector_2" d="M40.793 32C42.1737 32 43.293 30.8807 43.293 29.5C43.293 28.1193 42.1737 27 40.793 27C39.4123 27 38.293 28.1193 38.293 29.5C38.293 30.8807 39.4123 32 40.793 32Z" fill="#F47822"></path><g id="Group_2"><g id="Group_3"><path id="Vector_3" d="M44.8339 35.0198C44.5695 35.0198 44.3052 34.9154 44.1174 34.7067C43.7557 34.3102 43.7835 33.6911 44.173 33.3294C45.3069 32.286 45.9608 30.8043 45.9608 29.26C45.9608 27.7157 45.3069 26.2341 44.173 25.1906C43.7765 24.8289 43.7487 24.2098 44.1174 23.8133C44.4791 23.4168 45.0982 23.389 45.4947 23.7577C47.032 25.1698 47.9155 27.1732 47.9155 29.26C47.9155 31.3469 47.032 33.3503 45.4947 34.7624C45.3069 34.9363 45.0704 35.0198 44.8339 35.0198Z" fill="#F47822"></path></g><g id="Group_4"><path id="Vector_4" d="M36.0523 35.0198C35.8158 35.0198 35.5793 34.9363 35.3915 34.7624C33.8541 33.3503 32.9707 31.3469 32.9707 29.26C32.9707 27.1732 33.8541 25.1698 35.3915 23.7577C35.788 23.3959 36.4071 23.4168 36.7688 23.8133C37.1305 24.2098 37.1097 24.8289 36.7131 25.1906C35.5793 26.2341 34.9254 27.7158 34.9254 29.2531C34.9254 30.7904 35.5793 32.2721 36.7131 33.3155C37.1097 33.6772 37.1375 34.2963 36.7688 34.6928C36.581 34.9154 36.3166 35.0198 36.0523 35.0198Z" fill="#F47822"></path></g></g><g id="Group_5"><g id="Group_6"><path id="Vector_5" d="M48.1718 38.6579C47.9074 38.6579 47.6431 38.5536 47.4553 38.3449C47.0936 37.9484 47.1214 37.3293 47.5109 36.9676C49.6674 34.992 50.8986 32.1817 50.8986 29.2601C50.8986 26.3385 49.6604 23.5351 47.5109 21.5526C47.1144 21.1909 47.0866 20.5718 47.4553 20.1753C47.817 19.7788 48.4361 19.7509 48.8326 20.1196C51.3855 22.4639 52.8533 25.7959 52.8533 29.2601C52.8533 32.7243 51.3855 36.0563 48.8326 38.4006C48.6448 38.5745 48.4083 38.6579 48.1718 38.6579Z" fill="#F47822"></path></g><g id="Group_7"><path id="Vector_6" d="M32.7167 38.6581C32.4802 38.6581 32.2437 38.5746 32.0558 38.4007C29.5029 36.0564 28.0352 32.7244 28.0352 29.2602C28.0352 25.796 29.5029 22.464 32.0558 20.1197C32.4524 19.758 33.0715 19.7858 33.4332 20.1754C33.7949 20.5719 33.774 21.191 33.3775 21.5527C31.2211 23.5283 29.9899 26.3386 29.9899 29.2532C29.9899 32.1679 31.2281 34.9782 33.3775 36.9538C33.774 37.3155 33.8019 37.9346 33.4332 38.3311C33.2454 38.5537 32.981 38.6581 32.7167 38.6581Z" fill="#F47822"></path></g></g></g></svg> 