<?xml version="1.0" encoding="UTF-8"?> <svg xmlns="http://www.w3.org/2000/svg" xmlns:xlink="http://www.w3.org/1999/xlink" fill="none" height="22" viewBox="0 0 136 22" width="136"><linearGradient id="a" gradientUnits="userSpaceOnUse" x1=".760743" x2="135.239" y1="10.9744" y2="10.9744"><stop offset="0" stop-color="#f89522"></stop><stop offset="1" stop-color="#fddd00"></stop></linearGradient><path clip-rule="evenodd" d="m11.0487.927066c.2994-.9213104 1.6028-.92130895 1.9021.000002l1.9677 6.055732c.1338.41202.5178.69098.951.69098h6.3674c.9687 0 1.3715 1.23961.5878 1.80902l-5.1513 3.7426c-.3505.2547-.4972.7061-.3633 1.1181l1.9676 6.0557c.2994.9213-.7551 1.6874-1.5388 1.118l-5.1513-3.7426c-.3505-.2547-.8251-.2547-1.1756 0l-5.15133 3.7426c-.78371.5694-1.83819-.1967-1.53884-1.118l1.96763-6.0557c.13387-.412-.01279-.8634-.36328-1.1181l-5.15131-3.74261c-.78371-.5694-.380934-1.80901.58779-1.80901h6.36737c.43323 0 .81718-.27896.95106-.69098zm28 0c.2994-.9213104 1.6028-.92130895 1.9021.000002l1.9677 6.055732c.1338.41202.5178.69098.951.69098h6.3674c.9687 0 1.3715 1.23961.5878 1.80902l-5.1513 3.7426c-.3505.2547-.4972.7061-.3633 1.1181l1.9676 6.0557c.2994.9213-.7551 1.6874-1.5388 1.118l-5.1513-3.7426c-.3505-.2547-.8251-.2547-1.1756 0l-5.1513 3.7426c-.7837.5694-1.8382-.1967-1.5389-1.118l1.9677-6.0557c.1338-.412-.0128-.8634-.3633-1.1181l-5.1513-3.74261c-.7837-.5694-.381-1.80901.5878-1.80901h6.3673c.4333 0 .8172-.27896.9511-.69098zm29.9021.000002c-.2993-.92131095-1.6027-.9213124-1.9021-.000002l-1.9676 6.055734c-.1339.41202-.5178.69098-.9511.69098h-6.3673c-.9688 0-1.3715 1.23961-.5878 1.80901l5.1513 3.74261c.3505.2547.4971.7061.3633 1.1181l-1.9677 6.0557c-.2993.9213.7552 1.6874 1.5389 1.118l5.1513-3.7426c.3505-.2547.8251-.2547 1.1756 0l5.1513 3.7426c.7837.5694 1.8382-.1967 1.5388-1.118l-1.9676-6.0557c-.1339-.412.0128-.8634.3632-1.1181l5.1514-3.7426c.7837-.56941.3809-1.80902-.5878-1.80902h-6.3674c-.4332 0-.8172-.27896-.9511-.69098zm26.0979-.000002c.2994-.9213104 1.6028-.92130895 1.9021.000002l1.9676 6.055732c.1339.41202.5179.69098.9511.69098h6.3675c.969 0 1.371 1.23961.588 1.80902l-5.152 3.7426c-.35.2547-.497.7061-.363 1.1181l1.968 6.0557c.299.9213-.755 1.6874-1.539 1.118l-5.1515-3.7426c-.3504-.2547-.825-.2547-1.1755 0l-5.1513 3.7426c-.7837.5694-1.8382-.1967-1.5389-1.118l1.9677-6.0557c.1338-.412-.0128-.8634-.3633-1.1181l-5.1513-3.74261c-.7837-.5694-.381-1.80901.5878-1.80901h6.3673c.4332 0 .8172-.27896.9511-.69098zm29.9023.000002c-.3-.92131095-1.603-.9213124-1.902-.000002l-1.968 6.055734c-.134.41202-.518.69098-.951.69098h-6.367c-.969 0-1.372 1.23961-.588 1.80901l5.151 3.74261c.351.2547.497.7061.363 1.1181l-1.967 6.0557c-.3.9213.755 1.6874 1.539 1.118l5.151-3.7426c.35-.2547.825-.2547 1.176 0l5.151 3.7426c.784.5694 1.838-.1967 1.539-1.118l-1.968-6.0557c-.134-.412.013-.8634.363-1.1181l5.152-3.7426c.783-.56941.381-1.80902-.588-1.80902h-6.368c-.433 0-.817-.27896-.951-.69098z" fill="url(#a)" fill-rule="evenodd"></path></svg> 