<?xml version="1.0" encoding="UTF-8"?> <svg xmlns="http://www.w3.org/2000/svg" fill="none" height="80" viewBox="0 0 80 80" width="80"><path d="m38.8185 72.6924c-3.0389 0-3.5391-1.359-4.1148-3.5768-.7078-2.7369-1.5477-4.1242-2.4914-4.1242-.7456 0-1.0382.1888-1.4345.4436-.4436.2925-1.0004.6606-2.0102.6606-2.0385 0-2.5576-1.7271-2.9067-2.8784-.4342-1.4534-.7362-2.2084-2.2367-2.2084-1.7837 0-2.6142.1793-3.2842.3303-.991.2171-1.6893.3303-3.4164-.0849-1.5006-.3586-14.66579-4.0487-14.66579-21.7061 0-7.2008 6.30421-15.1094 12.04219-15.1094 2.9917 0 4.6998.8588 6.342 1.6988 1.3118.6606 2.5575 1.2929 4.5299 1.5571 1.142.151 2.4915.3587 3.9354.5852 4.3601.6795 9.7867 1.5194 11.9195 1.0947 2.1801-.4341 6.2193-.5851 7.8048.8399.5096.453.755 1.0665.6984 1.7082-.0944 1.0664-1.0948 1.661-2.0668 2.2367-.4908.2925-1.3024.7739-1.3779 1.0759 0 .0188 0 .0566.0094.0943.5097-.1038 1.6516-.755 2.3594-1.1608 2.114-1.208 4.5205-2.567 5.7096-.7833.2643.3964.604 1.0004.4625 1.6799-.151.7267-.7361 1.0947-1.2552 1.4156-.8399.5379-1.8025 1.1419-1.8025 3.4635 0 1.5761.368 2.0763.4624 2.1235.0189 0 .1604-.0283.3586-.2171.3492-.3303.7644-1.0287.7644-1.9252 0-1.812.755-3.3409 2.0197-4.0864.9154-.538 1.9535-.5852 2.7746-.1227 1.2174.6795 1.2835 2.1517 1.3401 3.3408.0849 1.7837.2642 1.7837.67 1.7837.906 0 1.2647-.4436 1.9819-1.4345.6512-.8966 1.4628-2.0196 3.0577-2.718 1.1514-.5002 1.1703-.7644 1.208-1.2929.0472-.5757.1038-1.4534 1.1797-2.2461.9249-.6795 1.8026-.8871 2.5009-1.057.7645-.1793 1.142-.2926 1.4911-.7644.236-.3209.236-1.0759.2454-1.746 0-1.2929.0283-3.4635 2.3499-3.6806 2.9256-.2642 3.2182 2.0291 3.3786 3.2654.0567.4624.1227.9532.2643 1.2174 1.1325 2.1612-.5191 3.3881-1.3213 3.9732-.1321.0943-.2548.1887-.3586.2737-.8682.7172-.7833 1.2268-.6417 2.0668.1321.7833.3114 1.8591-.5946 2.8689-.972 1.0853-2.0385 1.2835-2.7463 1.4157-.1321.0283-.302.0566-.4058.0849-.3397 1.0947-1.5572 7.5877-1.5855 8.2766 0 .0661.0755.3115.1416.4908.1982.6134.4624 1.4533.2925 2.5198-.1226.8022-1.0003 1.9158-2.9633 4.2751-.9721 1.1703-2.5859 3.105-2.7935 3.7278.1416.5191 1.1608 2.0763 1.9253 3.2182 1.7836 2.7085 2.9539 4.5772 2.9539 5.8229 0 .8588-.2643 1.5383-.7833 2.029-.9343.8777-2.3688.7834-3.0578.7456-2.0762-.1321-4.294-2.5481-4.9452-5.3982l-.0283-.1321c-.2737-1.2269-.7833-3.5202-4.596-3.6618-2.1895-.0849-2.8218.7267-3.558 1.6516-.6417.8116-1.4439 1.812-3.1521 1.812-1.1985 0-2.0573-.4436-2.7557-.7928-1.1985-.6134-2.0668-1.0475-4.7942.8022-2.3594 1.6044-1.9536 2.8124-1.5949 3.8788.1887.5663.4058 1.208-.0095 1.7931-.4152.5851-1.1702.5851-1.4156.5851zm-6.6062-9.5885c2.8878 0 3.9259 4.0298 4.3223 5.5398.4436 1.7082.5379 2.0951 1.8781 2.1517-.4059-1.2174-1.0665-3.5862 2.3593-5.9172 3.3881-2.3028 4.983-1.812 6.71-.9249.6229.3114 1.1514.5851 1.897.5851.7455 0 1.0664-.3397 1.6798-1.1042.8305-1.0475 1.963-2.482 5.1057-2.3593 5.2661.1982 6.0871 3.9165 6.3608 5.1339l.0283.1227c.4908 2.1329 2.1329 3.8694 3.2276 3.9354.3964.0284 1.3213.0755 1.6516-.2359.1227-.1227.1887-.3397.1887-.6512 0-.7833-1.6515-3.2842-2.6424-4.7848-1.4723-2.2366-2.2462-3.4352-2.2462-4.2751 0-.9343.9344-2.1518 3.2371-4.9264.9626-1.1513 2.416-2.8973 2.5481-3.388.0944-.604-.0755-1.1231-.2359-1.6232-.1133-.3681-.2265-.7079-.2265-1.0854 0-.7833 1.3684-8.0784 1.7553-9.0505.3492-.8776 1.1703-1.0286 1.7743-1.1419.5851-.1132 1.1419-.2171 1.6893-.821.2737-.3115.2642-.5663.1415-1.293-.1604-.9626-.4058-2.416 1.293-3.8316.1321-.1132.2831-.2265.4435-.3397.991-.7362 1.1042-.9532.7739-1.5855-.302-.5757-.3869-1.2269-.4624-1.8592-.1888-1.4628-.302-1.7082-1.3307-1.6232-.4625.0377-.6229.1415-.6323 1.812 0 .9531-.0095 2.0384-.604 2.8501-.7739 1.057-1.7271 1.2835-2.5764 1.4911-.6135.1415-1.1986.2831-1.812.7361-.3775.2737-.387.4247-.4153.8682-.0755.9721-.3114 2.0008-2.3405 2.8785-1.123.4907-1.6893 1.2646-2.2838 2.0856-.755 1.0382-1.6044 2.2178-3.5108 2.2178-2.3876 0-2.4914-2.2461-2.5575-3.5862-.0283-.6795-.0755-1.6138-.3681-1.7742-.2265-.1227-.5662-.085-.8965.1038-.6795.3964-1.0948 1.3212-1.0948 2.4537 0 2.114-1.4345 4.0298-3.0199 4.0298-.7456 0-1.4062-.4436-1.812-1.208-.3492-.67-.5285-1.6138-.5285-2.8029 0-3.3692 1.6798-4.4262 2.6802-5.0585.1132-.0755.2642-.1604.3586-.2359-.0283-.0472-.066-.1227-.1227-.2076-.4624-.1982-2.3216.8588-3.2087 1.3684-1.8969 1.0759-3.8505 2.1895-4.7942.7078-.3681-.5757-.4813-1.1514-.3492-1.7176.2548-1.0759 1.3118-1.6988 2.2461-2.2556.3964-.2359 1.057-.6323 1.1608-.8305 0 .0095-.0094-.0188-.0849-.0849-.7739-.6889-3.7089-.8777-6.1721-.3869-2.4632.4907-7.8331-.3398-12.5801-1.0759-1.4251-.2171-2.7746-.4341-3.8977-.5757-2.2933-.302-3.8033-1.0664-5.134-1.7459-1.5854-.8022-2.9444-1.4911-5.4925-1.4911-4.34127 0-10.15474 6.5401-10.15474 13.2218 0 16.2136 11.87234 19.545 13.22184 19.8658 1.4062.3398 1.7931.2549 2.5764.085.7173-.1605 1.6988-.3775 3.6901-.3775 2.9728 0 3.6145 2.1328 4.0486 3.5485.3964 1.3023.5569 1.5383 1.1042 1.5383.4436 0 .6229-.1133.9721-.3492.4907-.3209 1.1514-.755 2.4632-.755z" fill="#1c2c57"></path><g fill="#f47822"><path clip-rule="evenodd" d="m51.7578 17.0835c0-5.1351 4.1347-9.31134 9.2498-9.31134s9.2498 4.17624 9.2498 9.31134c0 4.5277-2.2039 8.6359-4.3154 11.5478-1.0645 1.4682-2.1276 2.6624-2.9251 3.4904-.3993.4146-.7333.7387-.9696.961-.1181.1112-.2119.1969-.2773.2559-.0327.0295-.0583.0523-.0763.0682l-.0212.0187-.0062.0054-.002.0018-.0007.0006c-.0003.0002-.0006.0004-.656-.7548-.6554.7552-.6557.755-.656.7548l-.0007-.0006-.002-.0018-.0062-.0054-.0212-.0187c-.018-.0159-.0436-.0387-.0763-.0682-.0654-.059-.1592-.1447-.2773-.2559-.2363-.2223-.5703-.5464-.9696-.961-.7975-.828-1.8606-2.0222-2.9252-3.4904-2.1114-2.9119-4.3153-7.0201-4.3153-11.5478zm9.2498 15.595-.6554.7552.6554.5688.6554-.5688zm0-1.3702c.1653-.1619.3568-.3539.5688-.574.7493-.778 1.7487-1.9009 2.7465-3.277 2.0134-2.7767 3.9345-6.466 3.9345-10.3738 0-4.0446-3.2532-7.31134-7.2498-7.31134s-7.2498 3.26674-7.2498 7.31134c0 3.9078 1.921 7.5971 3.9345 10.3738.9978 1.3761 1.9972 2.499 2.7465 3.277.212.2201.4035.4121.5688.574z" fill-rule="evenodd"></path><path d="m61 20c1.6569 0 3-1.3431 3-3s-1.3431-3-3-3-3 1.3431-3 3 1.3431 3 3 3z"></path></g></svg> 